<?xml version="1.0" encoding="utf-8"?>
<!-- Generator: Adobe Illustrator 24.0.0, SVG Export Plug-In . SVG Version: 6.00 Build 0)  -->
<svg version="1.1" id="Layer_1" xmlns="http://www.w3.org/2000/svg" xmlns:xlink="http://www.w3.org/1999/xlink" x="0px" y="0px"
	 viewBox="0 0 612 174.89" width="349px" height="100px" style="enable-background:new 0 0 612 174.89;" xml:space="preserve">
<style type="text/css">
	.st0{fill:#910811;}
	.st1{fill:#939598;}
	.st2{fill:none;}
	.st3{fill:#D82435;}
	.st4{fill:#F69988;}
	.st5{fill:#F26D61;}
	.st6{fill:#F04B4B;}
	.st7{fill:#F58675;}
	.st8{fill:#F1B8AB;}
	.st9{fill:#F04B4B;stroke:#F04B4B;stroke-width:0.5;stroke-miterlimit:10;}
</style>
<g>
	<g>
		<path class="st0" d="M169.6,108.8c-4.74-10.75-11.89-18.56-19.83-24.25c7.75-5.85,14.69-13.83,19.2-24.71
			c-10.12-6.01-20.51-8.21-30.3-8.23c3.12-9.5,4.28-20.36,1.5-32.23c-11.81,1.03-21.59,5.34-29.57,11.1
			c-3.07-9.43-8.48-18.79-17.6-26.69c-9.45,8.18-14.92,18.01-17.93,27.87c-8.31-6.18-18.65-10.86-31.31-11.79
			c-2.63,11.94-1.27,22.87,2.05,32.42c-9.98,0.13-20.61,2.54-30.91,8.99c4.92,11.16,12.46,19.17,20.76,24.91
			c-7.98,5.89-15.16,13.98-19.77,25.13c10.23,6.08,20.74,8.26,30.62,8.22c-2.82,9.2-3.76,19.63-1.1,30.97
			c11.88-1.03,21.7-5.4,29.71-11.2c3.02,9.7,8.48,19.38,17.86,27.51c9.65-8.36,15.16-18.43,18.11-28.51
			c8.11,5.77,18.09,10.08,30.18,10.97c2.55-11.56,1.35-22.18-1.75-31.51C149.27,117.52,159.59,115.06,169.6,108.8z M109.77,37.46
			l-0.12-0.48c0.97-0.84,1.97-1.66,3.03-2.44c0.19-0.14,0.38-0.29,0.58-0.43c0.25-0.18,0.51-0.36,0.76-0.54
			c0.21-0.15,0.42-0.29,0.64-0.43c0.25-0.17,0.51-0.34,0.77-0.5c0.23-0.15,0.47-0.29,0.7-0.44c0.25-0.15,0.5-0.31,0.75-0.46
			c0.31-0.18,0.62-0.36,0.93-0.53c0.34-0.19,0.68-0.38,1.03-0.56c0.33-0.18,0.67-0.35,1.01-0.52c0.23-0.12,0.47-0.23,0.7-0.34
			c0.31-0.15,0.61-0.29,0.92-0.43c0.24-0.11,0.48-0.21,0.73-0.32c0.32-0.14,0.65-0.27,0.98-0.41c0.23-0.09,0.47-0.19,0.7-0.28
			c0.39-0.15,0.79-0.29,1.19-0.43c0.18-0.06,0.36-0.13,0.54-0.19c0.58-0.19,1.16-0.38,1.75-0.55c0.17-0.05,0.35-0.09,0.52-0.14
			c0.44-0.12,0.88-0.24,1.32-0.35c0.23-0.06,0.46-0.11,0.69-0.16c0.41-0.09,0.82-0.18,1.24-0.26c0.24-0.05,0.47-0.09,0.71-0.14
			c0.44-0.08,0.89-0.15,1.34-0.22c0.21-0.03,0.42-0.07,0.63-0.09c0.66-0.09,1.33-0.17,2.02-0.23c0.16,0.67,0.3,1.34,0.43,2
			c0.04,0.22,0.08,0.44,0.12,0.65c0.08,0.45,0.15,0.89,0.22,1.33c0.04,0.25,0.07,0.51,0.1,0.76c0.05,0.41,0.1,0.81,0.14,1.21
			c0.03,0.26,0.05,0.52,0.08,0.78c0.03,0.4,0.06,0.8,0.08,1.19c0.01,0.25,0.03,0.49,0.04,0.74c0.02,0.47,0.03,0.94,0.03,1.41
			c0,0.33,0,0.66,0,0.99c-0.01,0.41-0.01,0.83-0.03,1.24c-0.01,0.31-0.03,0.62-0.05,0.93c-0.02,0.29-0.03,0.58-0.06,0.86
			c-0.03,0.34-0.06,0.67-0.09,1c-0.03,0.25-0.05,0.49-0.08,0.74c-0.04,0.36-0.09,0.71-0.14,1.06c-0.03,0.2-0.06,0.39-0.09,0.59
			c-0.06,0.39-0.12,0.78-0.19,1.16c-0.01,0.03-0.01,0.06-0.02,0.09c-0.28,1.5-0.63,2.96-1.03,4.39c-0.02,0.05-0.03,0.11-0.04,0.16
			c-0.13,0.45-0.27,0.9-0.41,1.34c-0.02,0.06-0.04,0.12-0.06,0.17c-0.31,0.97-0.66,1.93-1.02,2.87l-1.63,0.18
			c-8.46,0.96-15.36,2.21-20.87,5.38C111.81,52.72,111.61,44.87,109.77,37.46z M78.19,36.55l-0.1-0.08c0.16-0.67,0.31-1.33,0.5-2v0
			c0.05-0.19,0.11-0.38,0.16-0.56c0.11-0.38,0.22-0.75,0.34-1.13c0.07-0.24,0.15-0.47,0.23-0.71c0.11-0.33,0.22-0.66,0.34-0.99
			c0.09-0.24,0.17-0.49,0.26-0.73c0.12-0.33,0.25-0.67,0.38-1c0.09-0.23,0.18-0.46,0.27-0.69c0.17-0.42,0.35-0.83,0.54-1.25
			c0.06-0.14,0.12-0.28,0.19-0.43c0.25-0.54,0.51-1.08,0.78-1.62c0.1-0.19,0.2-0.38,0.3-0.58c0.19-0.36,0.38-0.72,0.58-1.08
			c0.12-0.21,0.24-0.43,0.37-0.64c0.2-0.35,0.41-0.69,0.62-1.03c0.13-0.2,0.25-0.41,0.38-0.61c0.24-0.38,0.5-0.76,0.76-1.14
			c0.11-0.16,0.21-0.31,0.32-0.47c0.37-0.52,0.75-1.05,1.15-1.56c0.09-0.12,0.19-0.24,0.29-0.36c0.31-0.4,0.64-0.79,0.97-1.19
			c0.15-0.18,0.31-0.36,0.46-0.53c0.29-0.34,0.6-0.67,0.9-1c0.17-0.18,0.34-0.36,0.51-0.54c0.33-0.34,0.67-0.68,1.01-1.02
			c0.16-0.16,0.31-0.31,0.48-0.47c0.51-0.48,1.03-0.96,1.57-1.43c0.52,0.45,1.02,0.91,1.51,1.37c0.16,0.15,0.31,0.3,0.47,0.45
			c0.33,0.32,0.65,0.64,0.96,0.96c0.17,0.18,0.34,0.35,0.51,0.53c0.29,0.31,0.57,0.62,0.85,0.94c0.16,0.18,0.32,0.36,0.47,0.54
			c0.29,0.34,0.58,0.69,0.86,1.04c0.12,0.15,0.25,0.3,0.36,0.45c0.38,0.48,0.75,0.97,1.11,1.47c0.11,0.16,0.22,0.32,0.33,0.48
			c0.24,0.34,0.48,0.69,0.71,1.04c0.14,0.22,0.28,0.44,0.42,0.66c0.19,0.29,0.37,0.59,0.55,0.88c0.14,0.24,0.28,0.47,0.42,0.71
			c0.16,0.28,0.32,0.57,0.48,0.85c0.13,0.24,0.27,0.48,0.4,0.73c0.16,0.3,0.3,0.59,0.45,0.89c0.21,0.42,0.42,0.85,0.61,1.28
			c0.13,0.29,0.27,0.57,0.39,0.86c0.13,0.29,0.25,0.59,0.37,0.88c0.1,0.23,0.19,0.46,0.28,0.69c0.12,0.3,0.24,0.61,0.35,0.91
			c0.08,0.22,0.16,0.43,0.24,0.65c0.11,0.32,0.22,0.63,0.33,0.95c0.06,0.19,0.12,0.38,0.19,0.58c0.32,0.99,0.6,1.97,0.85,2.95
			l-1.03,0.92c-6.37,5.73-11.11,10.68-13.75,16.4C89.3,47.56,83.93,41.38,78.19,36.55z M52.08,54.55l-1.14-0.07
			c-0.36-0.86-0.71-1.74-1.04-2.63c-0.13-0.35-0.25-0.7-0.37-1.06c-0.08-0.23-0.15-0.46-0.22-0.69c-0.1-0.31-0.2-0.63-0.29-0.95
			c-0.07-0.24-0.14-0.48-0.21-0.72c-0.09-0.33-0.18-0.66-0.27-0.99c-0.06-0.23-0.12-0.46-0.18-0.69c-0.1-0.42-0.2-0.84-0.29-1.27
			c-0.03-0.14-0.07-0.29-0.1-0.43c-0.11-0.56-0.22-1.12-0.31-1.69c-0.03-0.21-0.06-0.42-0.09-0.62c-0.06-0.38-0.11-0.77-0.16-1.16
			c-0.03-0.23-0.06-0.47-0.08-0.7c-0.04-0.38-0.08-0.76-0.11-1.14c-0.02-0.23-0.04-0.46-0.05-0.69c-0.03-0.43-0.05-0.87-0.07-1.31
			c-0.01-0.18-0.02-0.36-0.02-0.54c-0.02-0.61-0.02-1.23-0.01-1.85c0-0.15,0.01-0.3,0.01-0.45c0.01-0.48,0.03-0.97,0.06-1.46
			c0.01-0.22,0.03-0.45,0.05-0.67c0.03-0.43,0.07-0.86,0.11-1.29c0.02-0.24,0.05-0.47,0.08-0.71c0.05-0.45,0.12-0.9,0.18-1.35
			c0.03-0.21,0.06-0.42,0.09-0.63c0.11-0.66,0.23-1.32,0.37-1.99c0.73,0.05,1.44,0.11,2.15,0.19c0.24,0.03,0.47,0.06,0.7,0.09
			c0.47,0.06,0.94,0.12,1.4,0.19c0.27,0.04,0.53,0.09,0.8,0.13c0.42,0.07,0.84,0.15,1.25,0.24c0.27,0.06,0.55,0.11,0.82,0.17
			c0.4,0.09,0.8,0.19,1.19,0.29c0.26,0.07,0.53,0.13,0.79,0.2c0.42,0.11,0.84,0.24,1.25,0.36c0.31,0.09,0.62,0.19,0.92,0.29
			c0.49,0.16,0.98,0.33,1.46,0.5c0.32,0.12,0.62,0.24,0.94,0.36c0.27,0.11,0.55,0.21,0.82,0.32c0.34,0.14,0.67,0.28,1,0.43
			c0.23,0.1,0.46,0.2,0.68,0.31c0.35,0.16,0.69,0.33,1.04,0.49c0.18,0.09,0.36,0.18,0.55,0.28c0.37,0.19,0.74,0.38,1.11,0.58
			c0.08,0.04,0.16,0.09,0.24,0.14c1.87,1.04,3.64,2.18,5.3,3.4c0.02,0.01,0.04,0.03,0.06,0.04c0.42,0.31,0.84,0.63,1.25,0.95
			c0,0,0,0,0,0c0.34,0.26,0.66,0.54,0.98,0.81l-0.03,0.15c-1.91,8.45-2.25,15.3-1.01,21.53C68.02,56.89,59.87,55.05,52.08,54.55z
			 M41.48,84.23l-0.78,0.49c-0.51-0.31-1.02-0.62-1.53-0.96c0,0,0,0,0,0c-0.39-0.26-0.78-0.52-1.17-0.79
			c-0.06-0.04-0.12-0.08-0.18-0.12c-0.37-0.26-0.74-0.53-1.11-0.8c-0.06-0.05-0.12-0.09-0.18-0.14c-1.19-0.89-2.36-1.85-3.49-2.88
			c-0.01-0.01-0.01-0.01-0.02-0.02c-0.29-0.26-0.57-0.53-0.85-0.8c-0.15-0.14-0.3-0.28-0.44-0.42c-0.25-0.24-0.49-0.5-0.74-0.75
			c-0.18-0.18-0.35-0.36-0.52-0.55c-0.23-0.24-0.45-0.48-0.67-0.73c-0.19-0.22-0.38-0.44-0.58-0.66c-0.2-0.23-0.4-0.46-0.6-0.7
			c-0.26-0.31-0.5-0.63-0.75-0.94c-0.2-0.25-0.4-0.51-0.59-0.77c-0.29-0.38-0.57-0.77-0.85-1.17c-0.14-0.2-0.27-0.4-0.41-0.6
			c-0.22-0.33-0.44-0.66-0.66-1.01c-0.14-0.22-0.27-0.44-0.41-0.66c-0.21-0.34-0.42-0.69-0.62-1.05c-0.13-0.22-0.25-0.44-0.37-0.66
			c-0.21-0.39-0.42-0.79-0.63-1.19c-0.1-0.2-0.2-0.39-0.3-0.59c-0.3-0.6-0.59-1.21-0.87-1.84c0.59-0.37,1.18-0.72,1.77-1.05
			c0.2-0.11,0.39-0.21,0.59-0.32c0.4-0.22,0.79-0.43,1.19-0.63c0.23-0.12,0.46-0.23,0.7-0.35c0.36-0.18,0.73-0.35,1.09-0.52
			c0.24-0.11,0.49-0.22,0.73-0.33c0.36-0.15,0.71-0.3,1.07-0.45c0.25-0.1,0.49-0.2,0.74-0.3c0.38-0.14,0.76-0.28,1.13-0.41
			c0.25-0.09,0.5-0.18,0.74-0.26c0.52-0.17,1.05-0.34,1.57-0.49c0.32-0.09,0.63-0.17,0.95-0.26c0.26-0.07,0.52-0.14,0.79-0.21
			c0.34-0.09,0.69-0.16,1.03-0.24c0.23-0.05,0.45-0.1,0.68-0.15c0.37-0.08,0.73-0.15,1.1-0.21c0.19-0.03,0.37-0.07,0.56-0.1
			c0.4-0.07,0.8-0.13,1.2-0.19c0.09-0.01,0.18-0.02,0.26-0.03c2.04-0.28,4.06-0.42,6.05-0.44c0.01,0,0.02,0,0.02,0
			c1.22-0.01,2.42,0.03,3.61,0.1l0.22,0.5c3.43,7.85,7.2,13.52,11.89,17.76C55.83,76.77,48.11,80.08,41.48,84.23z M50.28,114.03
			l-0.5,1.2c-0.6,0.04-1.21,0.09-1.82,0.11c-6.78,0.25-14.03-0.8-21.16-4.07c-0.09-0.04-0.19-0.09-0.28-0.13
			c-0.5-0.24-1.01-0.49-1.51-0.75c-0.13-0.07-0.27-0.14-0.4-0.21c-0.6-0.32-1.21-0.65-1.81-1.01c0.26-0.64,0.54-1.27,0.82-1.89
			c0.09-0.2,0.19-0.4,0.29-0.6c0.2-0.41,0.39-0.81,0.6-1.21c0.12-0.23,0.24-0.46,0.36-0.69c0.19-0.36,0.39-0.71,0.59-1.06
			c0.13-0.23,0.27-0.46,0.4-0.69c0.2-0.33,0.4-0.66,0.61-0.99c0.14-0.22,0.28-0.45,0.43-0.67c0.22-0.33,0.44-0.66,0.67-0.98
			c0.14-0.2,0.27-0.4,0.41-0.59c0.34-0.47,0.69-0.94,1.05-1.39c0.2-0.26,0.41-0.51,0.62-0.76c0.17-0.21,0.34-0.42,0.52-0.63
			c0.23-0.27,0.46-0.53,0.7-0.8c0.15-0.17,0.31-0.35,0.47-0.52c0.25-0.28,0.51-0.55,0.77-0.81c0.13-0.14,0.27-0.27,0.4-0.41
			c0.29-0.29,0.57-0.57,0.86-0.85c0.07-0.07,0.15-0.14,0.23-0.21c1.5-1.42,3.06-2.71,4.66-3.88c0,0,0,0,0,0
			c0.42-0.3,0.83-0.6,1.26-0.89c0,0,0,0,0,0c0.5-0.34,1.01-0.67,1.52-1l0.54,0.31c7.38,4.23,13.76,6.54,20.04,7.2
			C57.54,99.81,53.21,106.93,50.28,114.03z M75.06,132.85l0.4,1.68c-0.83,0.7-1.69,1.38-2.57,2.05c-0.01,0.01-0.03,0.02-0.04,0.03
			c-1.6,1.19-3.29,2.3-5.09,3.31c-0.07,0.04-0.14,0.08-0.21,0.12c-0.35,0.2-0.71,0.39-1.08,0.58c-0.16,0.09-0.33,0.17-0.5,0.26
			c-0.33,0.17-0.67,0.33-1,0.49c-0.21,0.1-0.42,0.2-0.63,0.29c-0.32,0.15-0.64,0.29-0.97,0.43c-0.25,0.11-0.5,0.21-0.75,0.31
			c-0.3,0.12-0.6,0.25-0.91,0.37c-0.46,0.18-0.93,0.35-1.4,0.51c-0.29,0.1-0.58,0.2-0.88,0.29c-0.38,0.12-0.77,0.25-1.16,0.36
			c-0.25,0.07-0.51,0.14-0.76,0.21c-0.37,0.1-0.74,0.2-1.11,0.29c-0.26,0.06-0.52,0.12-0.78,0.18c-0.39,0.09-0.78,0.17-1.18,0.25
			c-0.25,0.05-0.5,0.1-0.76,0.15c-0.44,0.08-0.88,0.15-1.32,0.22c-0.22,0.03-0.43,0.07-0.66,0.1c-0.67,0.09-1.34,0.17-2.03,0.23
			c-0.16-0.67-0.3-1.34-0.43-2.01c-0.04-0.22-0.08-0.44-0.12-0.65c-0.08-0.45-0.15-0.89-0.22-1.33c-0.04-0.25-0.07-0.51-0.1-0.76
			c-0.05-0.41-0.1-0.81-0.14-1.21c-0.03-0.26-0.05-0.52-0.08-0.78c-0.03-0.4-0.06-0.8-0.08-1.19c-0.01-0.25-0.03-0.5-0.04-0.75
			c-0.02-0.46-0.03-0.91-0.03-1.37c0-0.34,0-0.69,0-1.03c0.01-0.41,0.01-0.83,0.03-1.24c0.01-0.31,0.03-0.63,0.05-0.94
			c0.02-0.29,0.03-0.57,0.06-0.85c0.03-0.34,0.06-0.67,0.09-1.01c0.03-0.25,0.05-0.49,0.08-0.74c0.04-0.36,0.09-0.71,0.14-1.06
			c0.03-0.2,0.06-0.39,0.09-0.59c0.06-0.39,0.12-0.78,0.19-1.17c0.01-0.04,0.02-0.08,0.02-0.12c0.28-1.49,0.63-2.95,1.03-4.38
			c0.01-0.05,0.03-0.1,0.04-0.15c0.13-0.45,0.27-0.9,0.41-1.35c0.02-0.06,0.04-0.11,0.05-0.16c0.15-0.46,0.3-0.92,0.46-1.37
			c0,0,0,0,0,0c0.28-0.78,0.57-1.54,0.88-2.3l0.43-0.05c8.46-0.91,15.15-2.82,20.68-5.94C72.62,117.18,73.27,125.42,75.06,132.85z
			 M132.45,115.62l1.75,0.12c0.29,0.66,0.57,1.32,0.84,2c0,0,0,0,0,0c0.75,1.89,1.41,3.86,1.94,5.9c0.01,0.05,0.03,0.09,0.04,0.14
			c0.11,0.41,0.2,0.83,0.3,1.25c0.04,0.16,0.07,0.31,0.11,0.47c0.08,0.38,0.16,0.77,0.23,1.15c0.04,0.2,0.08,0.4,0.11,0.6
			c0.07,0.37,0.13,0.73,0.18,1.1c0.04,0.23,0.07,0.46,0.1,0.7c0.05,0.35,0.1,0.71,0.14,1.06c0.03,0.28,0.05,0.55,0.08,0.83
			c0.05,0.48,0.08,0.97,0.11,1.46c0.03,0.42,0.05,0.84,0.06,1.26c0.01,0.26,0.01,0.53,0.01,0.8c0.01,0.37,0.01,0.74,0.01,1.11
			c0,0.27-0.01,0.55-0.02,0.82c-0.01,0.37-0.03,0.75-0.05,1.13c-0.01,0.27-0.03,0.54-0.05,0.82c-0.03,0.39-0.06,0.79-0.1,1.19
			c-0.03,0.26-0.05,0.52-0.08,0.78c-0.05,0.44-0.11,0.89-0.18,1.33c-0.03,0.22-0.06,0.44-0.1,0.66c-0.11,0.67-0.23,1.34-0.37,2.02
			c-0.72-0.05-1.44-0.11-2.14-0.19c-0.23-0.03-0.46-0.06-0.69-0.09c-0.47-0.06-0.94-0.12-1.41-0.19c-0.26-0.04-0.52-0.09-0.78-0.13
			c-0.43-0.07-0.85-0.15-1.27-0.24c-0.26-0.05-0.52-0.1-0.77-0.16c-0.43-0.1-0.86-0.2-1.28-0.31c-0.23-0.06-0.46-0.11-0.68-0.17
			c-0.62-0.17-1.23-0.34-1.83-0.53c-0.2-0.06-0.4-0.14-0.61-0.21c-0.41-0.14-0.81-0.27-1.21-0.42c-0.28-0.1-0.56-0.21-0.84-0.32
			c-0.31-0.12-0.61-0.24-0.91-0.36c-0.3-0.12-0.59-0.25-0.89-0.38c-0.27-0.12-0.54-0.24-0.8-0.36c-0.31-0.14-0.61-0.28-0.92-0.43
			c-0.23-0.11-0.45-0.23-0.67-0.34c-1.22-0.62-2.39-1.28-3.52-1.99c-0.11-0.07-0.22-0.13-0.33-0.2c-0.36-0.23-0.71-0.46-1.07-0.7
			c-0.12-0.08-0.25-0.16-0.37-0.25c-0.35-0.24-0.7-0.49-1.05-0.74c-0.1-0.07-0.19-0.14-0.29-0.21c-0.37-0.27-0.73-0.54-1.09-0.82
			c0,0,0,0,0,0c-0.72-0.56-1.42-1.13-2.1-1.71l0.15-0.63c2.01-8.51,1.78-15.22,0.55-21.5C116.33,113.18,124.56,115.08,132.45,115.62
			z M163.37,107.2c-0.59,0.37-1.17,0.71-1.76,1.05c-0.19,0.11-0.38,0.21-0.58,0.32c-0.4,0.22-0.8,0.43-1.2,0.64
			c-0.23,0.12-0.45,0.23-0.68,0.34c-0.37,0.18-0.74,0.36-1.11,0.53c-0.23,0.11-0.46,0.21-0.7,0.31c-0.38,0.16-0.76,0.32-1.13,0.47
			c-0.22,0.09-0.44,0.18-0.65,0.26c-0.51,0.2-1.02,0.38-1.53,0.56c-0.25,0.09-0.5,0.17-0.75,0.25c-0.39,0.13-0.78,0.25-1.16,0.36
			c-0.29,0.08-0.57,0.16-0.86,0.24c-0.29,0.08-0.58,0.16-0.88,0.23c-0.31,0.08-0.62,0.15-0.93,0.22c-0.26,0.06-0.52,0.12-0.78,0.17
			c-0.33,0.07-0.66,0.14-0.99,0.2c-0.22,0.04-0.43,0.08-0.65,0.11c-1.37,0.23-2.73,0.41-4.07,0.52c-0.06,0-0.11,0.01-0.17,0.02
			c-0.44,0.03-0.87,0.06-1.3,0.08c-0.11,0.01-0.23,0.01-0.34,0.02c-0.43,0.02-0.86,0.03-1.29,0.04c-0.09,0-0.19,0-0.28,0
			c-0.46,0.01-0.91,0.01-1.36,0c0,0,0,0,0,0c-1.01-0.01-2.01-0.06-3-0.13l-0.62-1.42c-3.42-7.91-7.2-13.62-11.91-17.89
			c6.01-1.39,13.59-3.6,20.28-7.79l1.31-0.82c2.71,1.61,5.36,3.49,7.85,5.7c0.09,0.08,0.17,0.15,0.26,0.23
			c0.3,0.27,0.6,0.55,0.89,0.83c0.14,0.13,0.27,0.26,0.41,0.39c0.27,0.26,0.54,0.53,0.8,0.8c0.16,0.16,0.31,0.33,0.47,0.49
			c0.25,0.26,0.49,0.52,0.73,0.79c0.18,0.2,0.35,0.4,0.52,0.6c0.22,0.25,0.44,0.5,0.65,0.76c0.37,0.44,0.73,0.89,1.08,1.35
			c0.15,0.2,0.3,0.41,0.45,0.61c0.23,0.31,0.45,0.61,0.67,0.93c0.15,0.22,0.3,0.44,0.45,0.67c0.21,0.31,0.42,0.63,0.63,0.95
			c0.14,0.23,0.29,0.46,0.43,0.69c0.21,0.34,0.41,0.68,0.61,1.02c0.13,0.23,0.26,0.45,0.39,0.68c0.21,0.39,0.42,0.78,0.63,1.18
			c0.1,0.2,0.21,0.4,0.31,0.6C162.8,105.95,163.1,106.57,163.37,107.2z M134.4,56.42l0.18-0.44c1.34-0.12,2.7-0.22,4.08-0.24
			c0.02,0,0.04,0,0.05,0c1.99-0.03,4.01,0.05,6.06,0.28c0.08,0.01,0.16,0.02,0.24,0.03c0.4,0.05,0.81,0.1,1.21,0.16
			c0.18,0.03,0.37,0.05,0.55,0.08c0.37,0.06,0.73,0.12,1.1,0.18c0.23,0.04,0.46,0.08,0.69,0.13c0.34,0.07,0.69,0.13,1.03,0.21
			c0.27,0.06,0.53,0.12,0.8,0.19c0.32,0.08,0.63,0.15,0.95,0.23c0.47,0.12,0.93,0.25,1.4,0.39c0.31,0.09,0.61,0.19,0.92,0.29
			c0.38,0.12,0.77,0.25,1.15,0.38c0.25,0.09,0.49,0.18,0.74,0.27c0.36,0.13,0.72,0.27,1.08,0.41c0.25,0.1,0.49,0.2,0.74,0.31
			c0.37,0.15,0.73,0.32,1.1,0.48c0.23,0.11,0.47,0.21,0.7,0.32c0.4,0.19,0.8,0.39,1.2,0.6c0.2,0.1,0.39,0.2,0.59,0.3
			c0.6,0.32,1.19,0.64,1.78,0.99c-0.26,0.64-0.54,1.26-0.82,1.88c-0.09,0.2-0.19,0.39-0.28,0.59c-0.2,0.41-0.4,0.82-0.6,1.22
			c-0.12,0.22-0.23,0.45-0.35,0.67c-0.2,0.36-0.39,0.72-0.6,1.08c-0.13,0.22-0.25,0.44-0.38,0.66c-0.21,0.36-0.43,0.71-0.65,1.06
			c-0.12,0.2-0.24,0.39-0.37,0.59c-0.31,0.47-0.62,0.93-0.94,1.38c-0.15,0.21-0.3,0.41-0.45,0.62c-0.24,0.32-0.48,0.65-0.72,0.96
			c-0.18,0.23-0.37,0.46-0.56,0.69c-0.19,0.24-0.38,0.47-0.58,0.7c-0.21,0.24-0.41,0.48-0.63,0.72c-0.18,0.2-0.36,0.4-0.54,0.6
			c-0.23,0.25-0.45,0.49-0.69,0.74c-0.15,0.16-0.31,0.32-0.47,0.48c-0.96,0.97-1.95,1.9-2.97,2.76c-0.05,0.05-0.11,0.09-0.16,0.14
			c-0.33,0.28-0.66,0.55-1,0.82c-0.09,0.07-0.18,0.15-0.28,0.22c-0.34,0.27-0.67,0.52-1.01,0.78c-0.08,0.06-0.16,0.12-0.24,0.17
			c-0.36,0.27-0.73,0.53-1.1,0.79c0,0,0,0,0,0c-0.78,0.54-1.56,1.05-2.35,1.55l-1.12-0.64c-7.45-4.27-13.7-7.71-20.04-8.35
			C126.91,70.15,131.46,63.65,134.4,56.42z M106.61,133.4l0.94,0.8c-0.09,0.39-0.17,0.79-0.27,1.18v0c-0.5,2.01-1.13,4.02-1.9,6.02
			c-0.05,0.14-0.11,0.28-0.16,0.43c-0.15,0.38-0.31,0.75-0.47,1.13c-0.08,0.19-0.16,0.38-0.25,0.58c-0.16,0.35-0.31,0.7-0.48,1.05
			c-0.1,0.22-0.21,0.44-0.32,0.66c-0.16,0.33-0.32,0.66-0.5,0.99c-0.13,0.24-0.26,0.48-0.39,0.72c-0.17,0.31-0.33,0.62-0.51,0.92
			c-0.18,0.32-0.38,0.63-0.57,0.95c-0.24,0.4-0.49,0.8-0.75,1.19c-0.23,0.35-0.45,0.7-0.69,1.04c-0.16,0.23-0.33,0.45-0.49,0.68
			c-0.23,0.31-0.45,0.63-0.69,0.94c-0.17,0.23-0.35,0.45-0.53,0.68c-0.25,0.31-0.49,0.62-0.75,0.92c-0.18,0.22-0.37,0.44-0.56,0.65
			c-0.27,0.31-0.55,0.62-0.84,0.93c-0.19,0.2-0.37,0.4-0.56,0.6c-0.32,0.34-0.66,0.67-1,1c-0.17,0.16-0.33,0.33-0.5,0.49
			c-0.52,0.49-1.05,0.98-1.6,1.46c-0.53-0.46-1.04-0.92-1.53-1.39c-0.17-0.16-0.32-0.32-0.49-0.47c-0.32-0.32-0.64-0.63-0.95-0.95
			c-0.18-0.19-0.36-0.38-0.54-0.58c-0.27-0.29-0.54-0.59-0.81-0.88c-0.18-0.21-0.36-0.41-0.54-0.62c-0.25-0.29-0.49-0.58-0.72-0.87
			c-0.17-0.21-0.35-0.43-0.52-0.65c-0.23-0.29-0.45-0.59-0.67-0.89c-0.16-0.22-0.32-0.43-0.48-0.65c-0.24-0.33-0.46-0.66-0.68-1
			c-0.28-0.41-0.55-0.83-0.81-1.25c-0.16-0.25-0.32-0.5-0.47-0.75c-0.18-0.3-0.35-0.61-0.52-0.91c-0.12-0.21-0.24-0.43-0.36-0.64
			c-0.18-0.32-0.34-0.64-0.51-0.97c-0.1-0.19-0.2-0.38-0.29-0.58c-0.17-0.34-0.34-0.69-0.5-1.03c-0.08-0.16-0.15-0.32-0.22-0.48
			c-0.17-0.38-0.34-0.75-0.5-1.13c-0.04-0.09-0.07-0.17-0.11-0.26c-0.79-1.92-1.45-3.85-1.98-5.78c0,0,0,0,0,0
			c-0.2-0.72-0.38-1.44-0.55-2.16l0.61-0.54c6.37-5.66,10.62-10.94,13.3-16.61C95.01,122.57,100.87,128.48,106.61,133.4z"/>
		<circle class="st1" cx="93.11" cy="84.71" r="16.41"/>
		<path class="st2" d="M26.8,111.27c7.15,3.3,14.36,4.37,21.14,4.11c0-0.01,0.01-0.02,0.01-0.04
			C41.18,115.59,33.93,114.55,26.8,111.27z"/>
		<circle class="st3" cx="92.39" cy="84.71" r="16.41"/>
		<path class="st2" d="M101.81,78.61c-0.94-1.23-1.55-2.52-1.84-3.86c-1.18,0.1-2.4-0.03-3.64-0.39c-1.48-0.44-2.74-1.11-3.76-2
			c-0.16,0.14-0.33,0.27-0.5,0.39c-0.79,0.57-1.7,1.04-2.69,1.38c-1.51,0.52-2.96,0.7-4.35,0.54c-0.28,1.17-0.81,2.31-1.57,3.39
			c-0.69,0.98-1.49,1.8-2.37,2.44c-0.27,0.2-0.55,0.38-0.84,0.54c0.46,1.1,0.7,2.32,0.71,3.63c0.02,1.55-0.26,2.96-0.82,4.22
			c1,0.61,1.89,1.44,2.66,2.46c0.93,1.24,1.54,2.54,1.81,3.88c1.18-0.1,2.4,0.04,3.63,0.42c1.47,0.44,2.72,1.12,3.73,2.01
			c0.13-0.11,0.27-0.21,0.41-0.31c0.82-0.59,1.75-1.07,2.78-1.41c1.53-0.51,3-0.68,4.41-0.5c0.28-1.19,0.82-2.34,1.6-3.44
			c0.69-0.97,1.48-1.77,2.35-2.4c0.29-0.21,0.59-0.4,0.9-0.58c-0.47-1.11-0.71-2.33-0.73-3.66c-0.02-1.57,0.27-3,0.85-4.27
			C103.51,80.47,102.6,79.64,101.81,78.61z"/>
		<path class="st2" d="M117.28,93.23c0.02,0,0.05,0,0.07,0c5.26,0.02,12.51-2.8,21.49-8.44c-8.46-4.85-13.02-8.33-21.26-7.95
			c0,0,0.01,0,0.01-0.01c0.02-0.02-0.28,0.05-0.25,0.03c4.41-4.32,9.18-10.06,13.14-19.8c-9.18,1.04-14.58,1.35-21.23,5.64
			c-0.34,0.25-0.68,0.5-1.02,0.77c1.46-5.51,0.51-12.68-1.96-21.62c-7.19,6.47-11.22,8.62-13.55,16.33
			c-1.75-5.06-7.2-10.06-14.97-16.59c-2.12,9.35-3.35,14.38-0.64,21.97c-4.22-3.1-12.03-4.31-22.51-4.98
			c3.89,8.89,5.68,13.41,12.7,18.09C62.01,76.71,54.83,80.4,45.9,86c8.37,4.8,13.11,7.44,21.25,7.12
			c-4.32,3.18-8.27,10.17-12.25,19.79c9.27-0.99,14.09-1.1,20.41-5.69c0.28-0.21,0.92-0.63,1.2-0.84
			c-1.66,5.06-1.01,12.98,1.41,23.04c7.19-6.39,11.68-10.53,14.07-18.18c1.76,5.09,7.34,11.44,15,18c2.27-9.6,3.02-15.1,0.27-22.87
			c0-0.01,0.1-0.1,0.09-0.11c0.05,0.04,0.1,0.08,0.16,0.11c4.18,3.12,11.92,4.46,22.43,5.18C126.06,102.59,124.1,97.78,117.28,93.23
			z M107.71,90.14c-1.05,0.16-2.03,0.55-2.92,1.2c-0.67,0.49-1.29,1.12-1.85,1.91c-1.21,1.7-1.58,3.42-1.38,5.07
			c-1.64-0.87-3.54-1.06-5.72-0.33c-0.84,0.28-1.57,0.66-2.19,1.11c-0.73,0.53-1.3,1.17-1.75,1.89c-0.83-1.51-2.22-2.64-4.27-3.26
			c-1.91-0.57-3.61-0.4-5.09,0.25c0.27-1.78-0.15-3.56-1.47-5.32c-1.19-1.58-2.64-2.43-4.21-2.76c1.26-1.29,1.96-3,1.93-5.2
			c-0.02-2.01-0.71-3.58-1.8-4.77c1.01-0.17,1.96-0.55,2.82-1.18c0.68-0.49,1.3-1.13,1.87-1.93c1.18-1.66,1.55-3.35,1.38-4.96
			c1.62,0.82,3.48,0.96,5.62,0.23c0.81-0.28,1.52-0.65,2.12-1.08c0.77-0.56,1.38-1.24,1.84-1.99c0.84,1.53,2.24,2.66,4.31,3.27
			c1.91,0.56,3.61,0.38,5.09-0.28c-0.26,1.78,0.18,3.56,1.51,5.31c1.22,1.61,2.73,2.45,4.34,2.76c-1.31,1.3-2.04,3.03-2.02,5.28
			C105.88,87.36,106.59,88.94,107.71,90.14z"/>
		<path class="st0" d="M103.54,77.29c-1.33-1.75-1.77-3.53-1.51-5.31c-1.48,0.66-3.18,0.85-5.09,0.28
			c-2.07-0.61-3.47-1.74-4.31-3.27c-0.46,0.76-1.07,1.43-1.84,1.99c-0.6,0.44-1.3,0.8-2.12,1.08c-2.13,0.73-3.99,0.59-5.62-0.23
			c0.17,1.62-0.2,3.3-1.38,4.96c-0.57,0.8-1.19,1.44-1.87,1.93c-0.87,0.63-1.81,1.01-2.82,1.18c1.09,1.19,1.78,2.76,1.8,4.77
			c0.03,2.2-0.68,3.91-1.93,5.2c1.56,0.33,3.02,1.19,4.21,2.76c1.32,1.76,1.75,3.54,1.47,5.32c1.48-0.65,3.18-0.83,5.09-0.25
			c2.05,0.62,3.44,1.74,4.27,3.26c0.46-0.71,1.02-1.35,1.75-1.89c0.62-0.45,1.35-0.83,2.19-1.11c2.18-0.73,4.09-0.54,5.72,0.33
			c-0.19-1.65,0.17-3.37,1.38-5.07c0.56-0.79,1.19-1.42,1.85-1.91c0.89-0.65,1.87-1.04,2.92-1.2c-1.12-1.2-1.82-2.78-1.85-4.82
			c-0.03-2.25,0.71-3.97,2.02-5.28C106.26,79.74,104.76,78.9,103.54,77.29z M104.41,89c-0.31,0.17-0.61,0.37-0.9,0.58
			c-0.87,0.63-1.66,1.44-2.35,2.4c-0.78,1.1-1.32,2.25-1.6,3.44c-1.4-0.18-2.88-0.01-4.41,0.5c-1.03,0.34-1.96,0.82-2.78,1.41
			c-0.14,0.1-0.28,0.21-0.41,0.31c-1.01-0.89-2.26-1.57-3.73-2.01c-1.24-0.37-2.45-0.51-3.63-0.42c-0.28-1.34-0.88-2.64-1.81-3.88
			c-0.77-1.02-1.66-1.85-2.66-2.46c0.57-1.26,0.84-2.67,0.82-4.22c-0.02-1.31-0.25-2.52-0.71-3.63c0.29-0.16,0.57-0.34,0.84-0.54
			c0.88-0.64,1.67-1.46,2.37-2.44c0.77-1.08,1.29-2.21,1.57-3.39c1.39,0.16,2.85-0.03,4.35-0.54c0.99-0.34,1.9-0.81,2.69-1.38
			c0.17-0.13,0.34-0.26,0.5-0.39c1.02,0.9,2.28,1.57,3.76,2c1.24,0.36,2.46,0.5,3.64,0.39c0.29,1.34,0.9,2.63,1.84,3.86
			c0.79,1.04,1.7,1.86,2.72,2.47c-0.58,1.27-0.87,2.69-0.85,4.27C103.7,86.67,103.94,87.89,104.41,89z"/>
		<g>
			<path class="st4" d="M111.27,58.81c5.51-3.16,12.41-4.42,20.87-5.38l1.63-0.18c0.36-0.94,0.71-1.89,1.02-2.87
				c0.02-0.06,0.04-0.12,0.06-0.17c0.14-0.44,0.28-0.89,0.41-1.34c0.02-0.05,0.03-0.11,0.04-0.16c0.41-1.43,0.76-2.89,1.03-4.39
				c0.01-0.03,0.01-0.06,0.02-0.09c0.07-0.38,0.13-0.77,0.19-1.16c0.03-0.2,0.06-0.39,0.09-0.59c0.05-0.35,0.1-0.71,0.14-1.06
				c0.03-0.25,0.06-0.49,0.08-0.74c0.03-0.33,0.07-0.67,0.09-1c0.02-0.29,0.04-0.57,0.06-0.86c0.02-0.31,0.04-0.62,0.05-0.93
				c0.02-0.41,0.02-0.82,0.03-1.24c0-0.33,0.01-0.66,0-0.99c0-0.47-0.01-0.93-0.03-1.41c-0.01-0.25-0.03-0.49-0.04-0.74
				c-0.02-0.4-0.05-0.79-0.08-1.19c-0.02-0.26-0.05-0.52-0.08-0.78c-0.04-0.4-0.09-0.8-0.14-1.21c-0.03-0.25-0.07-0.5-0.1-0.76
				c-0.07-0.44-0.14-0.89-0.22-1.33c-0.04-0.22-0.07-0.44-0.12-0.65c-0.13-0.66-0.27-1.33-0.43-2c-0.68,0.06-1.35,0.14-2.02,0.23
				c-0.21,0.03-0.42,0.06-0.63,0.09c-0.45,0.07-0.9,0.14-1.34,0.22c-0.24,0.04-0.48,0.09-0.71,0.14c-0.42,0.08-0.83,0.17-1.24,0.26
				c-0.23,0.05-0.46,0.1-0.69,0.16c-0.45,0.11-0.89,0.23-1.32,0.35c-0.17,0.05-0.35,0.09-0.52,0.14c-0.59,0.17-1.17,0.35-1.75,0.55
				c-0.18,0.06-0.36,0.13-0.54,0.19c-0.4,0.14-0.79,0.28-1.19,0.43c-0.24,0.09-0.47,0.18-0.7,0.28c-0.33,0.13-0.66,0.27-0.98,0.41
				c-0.24,0.1-0.49,0.21-0.73,0.32c-0.31,0.14-0.62,0.28-0.92,0.43c-0.24,0.11-0.47,0.22-0.7,0.34c-0.34,0.17-0.67,0.35-1.01,0.52
				c-0.35,0.18-0.69,0.37-1.03,0.56c-0.31,0.18-0.62,0.35-0.93,0.53c-0.25,0.15-0.5,0.31-0.75,0.46c-0.24,0.15-0.47,0.29-0.7,0.44
				c-0.26,0.17-0.51,0.33-0.77,0.5c-0.21,0.14-0.43,0.29-0.64,0.43c-0.26,0.18-0.51,0.36-0.76,0.54c-0.19,0.14-0.39,0.28-0.58,0.43
				c-1.05,0.78-2.05,1.6-3.03,2.44l0.12,0.48C111.61,44.87,111.81,52.72,111.27,58.81z"/>
			<path class="st4" d="M92.45,52.76c2.64-5.73,7.38-10.67,13.75-16.4l1.03-0.92c-0.25-0.98-0.54-1.97-0.85-2.95
				c-0.06-0.19-0.12-0.38-0.19-0.58c-0.11-0.32-0.22-0.63-0.33-0.95c-0.08-0.22-0.16-0.43-0.24-0.65c-0.11-0.31-0.23-0.61-0.35-0.91
				c-0.09-0.23-0.19-0.46-0.28-0.69c-0.12-0.29-0.24-0.59-0.37-0.88c-0.13-0.29-0.26-0.57-0.39-0.86c-0.2-0.43-0.4-0.85-0.61-1.28
				c-0.15-0.3-0.3-0.59-0.45-0.89c-0.13-0.24-0.26-0.48-0.4-0.73c-0.16-0.28-0.31-0.57-0.48-0.85c-0.14-0.24-0.28-0.47-0.42-0.71
				c-0.18-0.29-0.36-0.59-0.55-0.88c-0.14-0.22-0.28-0.44-0.42-0.66c-0.23-0.35-0.47-0.69-0.71-1.04c-0.11-0.16-0.22-0.32-0.33-0.48
				c-0.36-0.49-0.72-0.98-1.11-1.47c-0.12-0.15-0.24-0.3-0.36-0.45c-0.28-0.35-0.57-0.69-0.86-1.04c-0.15-0.18-0.31-0.36-0.47-0.54
				c-0.28-0.31-0.56-0.63-0.85-0.94c-0.17-0.18-0.33-0.36-0.51-0.53c-0.31-0.32-0.64-0.64-0.96-0.96c-0.16-0.15-0.31-0.3-0.47-0.45
				c-0.49-0.46-0.99-0.92-1.51-1.37c-0.54,0.47-1.06,0.95-1.57,1.43c-0.16,0.15-0.32,0.31-0.48,0.47c-0.34,0.34-0.68,0.67-1.01,1.02
				c-0.17,0.18-0.34,0.36-0.51,0.54c-0.31,0.33-0.61,0.67-0.9,1c-0.16,0.18-0.31,0.35-0.46,0.53c-0.33,0.39-0.65,0.79-0.97,1.19
				c-0.1,0.12-0.2,0.24-0.29,0.36c-0.4,0.52-0.78,1.04-1.15,1.56c-0.11,0.15-0.21,0.31-0.32,0.47c-0.26,0.38-0.51,0.76-0.76,1.14
				c-0.13,0.2-0.26,0.41-0.38,0.61c-0.21,0.34-0.42,0.69-0.62,1.03c-0.12,0.21-0.25,0.42-0.37,0.64c-0.2,0.36-0.39,0.72-0.58,1.08
				c-0.1,0.19-0.2,0.38-0.3,0.58c-0.27,0.54-0.53,1.07-0.78,1.62c-0.07,0.14-0.12,0.28-0.19,0.43c-0.19,0.41-0.37,0.83-0.54,1.25
				c-0.09,0.23-0.18,0.46-0.27,0.69c-0.13,0.33-0.26,0.67-0.38,1c-0.09,0.24-0.18,0.49-0.26,0.73c-0.12,0.33-0.23,0.66-0.34,0.99
				c-0.08,0.24-0.16,0.47-0.23,0.71c-0.12,0.38-0.23,0.75-0.34,1.13c-0.05,0.19-0.11,0.38-0.16,0.56v0c-0.18,0.67-0.34,1.33-0.5,2
				l0.1,0.08C83.93,41.38,89.3,47.56,92.45,52.76z"/>
			<path class="st4" d="M73.67,59.27c-1.25-6.22-0.91-13.08,1.01-21.53l0.03-0.15c-0.33-0.27-0.65-0.54-0.98-0.81c0,0,0,0,0,0
				c-0.41-0.32-0.83-0.64-1.25-0.95c-0.02-0.01-0.04-0.03-0.06-0.04c-1.66-1.22-3.43-2.36-5.3-3.4c-0.08-0.05-0.16-0.09-0.24-0.14
				c-0.36-0.2-0.74-0.39-1.11-0.58c-0.18-0.09-0.36-0.19-0.55-0.28c-0.34-0.17-0.69-0.33-1.04-0.49c-0.23-0.1-0.45-0.21-0.68-0.31
				c-0.33-0.15-0.66-0.29-1-0.43c-0.27-0.11-0.54-0.22-0.82-0.32c-0.31-0.12-0.62-0.25-0.94-0.36c-0.48-0.18-0.97-0.34-1.46-0.5
				c-0.3-0.1-0.61-0.19-0.92-0.29c-0.41-0.13-0.83-0.25-1.25-0.36c-0.26-0.07-0.53-0.13-0.79-0.2c-0.39-0.1-0.79-0.2-1.19-0.29
				c-0.27-0.06-0.54-0.12-0.82-0.17c-0.41-0.08-0.83-0.16-1.25-0.24c-0.27-0.05-0.53-0.09-0.8-0.13c-0.46-0.07-0.93-0.13-1.4-0.19
				c-0.23-0.03-0.46-0.06-0.7-0.09c-0.71-0.08-1.42-0.14-2.15-0.19c-0.14,0.67-0.26,1.33-0.37,1.99c-0.03,0.21-0.06,0.42-0.09,0.63
				c-0.07,0.45-0.13,0.9-0.18,1.35c-0.03,0.24-0.05,0.47-0.08,0.71c-0.04,0.43-0.08,0.86-0.11,1.29c-0.02,0.22-0.03,0.45-0.05,0.67
				c-0.03,0.49-0.05,0.98-0.06,1.46c0,0.15-0.01,0.3-0.01,0.45c-0.01,0.62-0.01,1.24,0.01,1.85c0,0.18,0.02,0.36,0.02,0.54
				c0.02,0.44,0.04,0.87,0.07,1.31c0.02,0.23,0.04,0.46,0.05,0.69c0.03,0.38,0.07,0.76,0.11,1.14c0.03,0.23,0.05,0.47,0.08,0.7
				c0.05,0.39,0.1,0.77,0.16,1.16c0.03,0.21,0.06,0.42,0.09,0.62c0.09,0.57,0.2,1.13,0.31,1.69c0.03,0.14,0.06,0.29,0.1,0.43
				c0.09,0.43,0.19,0.85,0.29,1.27c0.06,0.23,0.12,0.46,0.18,0.69c0.09,0.33,0.17,0.66,0.27,0.99c0.07,0.24,0.14,0.48,0.21,0.72
				c0.09,0.32,0.19,0.63,0.29,0.95c0.07,0.23,0.15,0.46,0.22,0.69c0.12,0.35,0.24,0.71,0.37,1.06c0.32,0.89,0.67,1.77,1.04,2.63
				l1.14,0.07C59.87,55.05,68.02,56.89,73.67,59.27z"/>
			<path class="st5" d="M61.83,75.35c-4.68-4.24-8.45-9.91-11.89-17.76l-0.22-0.5c-1.19-0.07-2.39-0.11-3.61-0.1
				c-0.01,0-0.02,0-0.02,0c-1.99,0.02-4.01,0.16-6.05,0.44c-0.09,0.01-0.18,0.02-0.26,0.03c-0.4,0.06-0.8,0.12-1.2,0.19
				c-0.19,0.03-0.37,0.06-0.56,0.1c-0.37,0.07-0.73,0.14-1.1,0.21c-0.23,0.05-0.45,0.1-0.68,0.15c-0.34,0.08-0.69,0.15-1.03,0.24
				c-0.26,0.07-0.52,0.14-0.79,0.21c-0.32,0.09-0.63,0.17-0.95,0.26c-0.52,0.15-1.05,0.32-1.57,0.49c-0.25,0.08-0.5,0.17-0.74,0.26
				c-0.38,0.13-0.76,0.27-1.13,0.41c-0.25,0.09-0.49,0.2-0.74,0.3c-0.36,0.14-0.71,0.29-1.07,0.45c-0.24,0.11-0.49,0.22-0.73,0.33
				c-0.36,0.17-0.73,0.34-1.09,0.52c-0.23,0.11-0.46,0.23-0.7,0.35c-0.4,0.2-0.79,0.42-1.19,0.63c-0.2,0.11-0.39,0.21-0.59,0.32
				c-0.59,0.33-1.18,0.68-1.77,1.05c0.28,0.63,0.57,1.24,0.87,1.84c0.1,0.2,0.2,0.39,0.3,0.59c0.21,0.4,0.41,0.8,0.63,1.19
				c0.12,0.22,0.25,0.44,0.37,0.66c0.2,0.35,0.41,0.7,0.62,1.05c0.13,0.22,0.27,0.44,0.41,0.66c0.22,0.34,0.44,0.67,0.66,1.01
				c0.14,0.2,0.27,0.41,0.41,0.6c0.28,0.4,0.56,0.79,0.85,1.17c0.19,0.26,0.39,0.52,0.59,0.77c0.25,0.32,0.5,0.64,0.75,0.94
				c0.2,0.24,0.4,0.47,0.6,0.7c0.19,0.22,0.38,0.44,0.58,0.66c0.22,0.25,0.45,0.49,0.67,0.73c0.17,0.18,0.35,0.37,0.52,0.55
				c0.24,0.25,0.49,0.5,0.74,0.75c0.15,0.14,0.29,0.28,0.44,0.42c0.28,0.27,0.56,0.54,0.85,0.8c0.01,0.01,0.01,0.01,0.02,0.02
				c1.13,1.03,2.3,1.98,3.49,2.88c0.06,0.05,0.12,0.09,0.18,0.14c0.37,0.27,0.74,0.54,1.11,0.8c0.06,0.04,0.12,0.08,0.18,0.12
				c0.39,0.27,0.78,0.54,1.17,0.79c0,0,0,0,0,0c0.51,0.33,1.02,0.64,1.53,0.96l0.78-0.49C48.11,80.08,55.83,76.77,61.83,75.35z"/>
			<path class="st5" d="M61.59,95.17c-6.28-0.66-12.66-2.98-20.04-7.2l-0.54-0.31c-0.51,0.33-1.01,0.65-1.52,1c0,0,0,0,0,0
				c-0.42,0.29-0.84,0.59-1.26,0.89c0,0,0,0,0,0c-1.6,1.18-3.16,2.47-4.66,3.88c-0.08,0.07-0.15,0.14-0.23,0.21
				c-0.29,0.28-0.58,0.56-0.86,0.85c-0.13,0.14-0.27,0.27-0.4,0.41c-0.26,0.27-0.51,0.54-0.77,0.81c-0.16,0.17-0.31,0.34-0.47,0.52
				c-0.23,0.26-0.47,0.53-0.7,0.8c-0.18,0.21-0.35,0.42-0.52,0.63c-0.21,0.25-0.42,0.5-0.62,0.76c-0.36,0.45-0.7,0.92-1.05,1.39
				c-0.14,0.19-0.27,0.39-0.41,0.59c-0.23,0.32-0.45,0.65-0.67,0.98c-0.14,0.22-0.28,0.45-0.43,0.67c-0.21,0.32-0.41,0.65-0.61,0.99
				c-0.14,0.23-0.27,0.46-0.4,0.69c-0.2,0.35-0.39,0.7-0.59,1.06c-0.12,0.23-0.24,0.46-0.36,0.69c-0.2,0.4-0.4,0.8-0.6,1.21
				c-0.1,0.2-0.2,0.4-0.29,0.6c-0.28,0.62-0.56,1.24-0.82,1.89c0.6,0.35,1.2,0.69,1.81,1.01c0.13,0.07,0.27,0.14,0.4,0.21
				c0.5,0.26,1.01,0.51,1.51,0.75c0.09,0.04,0.19,0.09,0.28,0.13c7.13,3.28,14.38,4.32,21.16,4.07c0.61-0.02,1.21-0.07,1.82-0.11
				l0.5-1.2C53.21,106.93,57.54,99.81,61.59,95.17z"/>
			<path class="st6" d="M73.2,111.08c-5.53,3.13-12.22,5.04-20.68,5.94l-0.43,0.05c-0.31,0.75-0.6,1.52-0.88,2.3c0,0,0,0,0,0
				c-0.16,0.45-0.31,0.91-0.46,1.37c-0.02,0.05-0.04,0.11-0.05,0.16c-0.14,0.45-0.28,0.9-0.41,1.35c-0.01,0.05-0.03,0.1-0.04,0.15
				c-0.41,1.42-0.75,2.88-1.03,4.38c-0.01,0.04-0.02,0.08-0.02,0.12c-0.07,0.39-0.13,0.78-0.19,1.17c-0.03,0.2-0.06,0.39-0.09,0.59
				c-0.05,0.35-0.1,0.71-0.14,1.06c-0.03,0.24-0.06,0.49-0.08,0.74c-0.03,0.33-0.07,0.67-0.09,1.01c-0.02,0.28-0.04,0.57-0.06,0.85
				c-0.02,0.31-0.04,0.62-0.05,0.94c-0.02,0.41-0.02,0.82-0.03,1.24c0,0.34,0,0.69,0,1.03c0,0.45,0.01,0.91,0.03,1.37
				c0.01,0.25,0.03,0.5,0.04,0.75c0.02,0.4,0.05,0.79,0.08,1.19c0.02,0.26,0.05,0.52,0.08,0.78c0.04,0.4,0.09,0.81,0.14,1.21
				c0.03,0.25,0.07,0.5,0.1,0.76c0.07,0.44,0.14,0.89,0.22,1.33c0.04,0.22,0.07,0.44,0.12,0.65c0.13,0.66,0.27,1.33,0.43,2.01
				c0.69-0.06,1.36-0.14,2.03-0.23c0.22-0.03,0.44-0.07,0.66-0.1c0.44-0.07,0.89-0.14,1.32-0.22c0.25-0.05,0.51-0.1,0.76-0.15
				c0.39-0.08,0.79-0.16,1.18-0.25c0.26-0.06,0.52-0.12,0.78-0.18c0.38-0.09,0.75-0.19,1.11-0.29c0.25-0.07,0.51-0.14,0.76-0.21
				c0.39-0.11,0.77-0.24,1.16-0.36c0.29-0.1,0.59-0.19,0.88-0.29c0.47-0.16,0.94-0.33,1.4-0.51c0.31-0.12,0.61-0.24,0.91-0.37
				c0.25-0.1,0.5-0.2,0.75-0.31c0.33-0.14,0.65-0.29,0.97-0.43c0.21-0.1,0.42-0.19,0.63-0.29c0.34-0.16,0.67-0.33,1-0.49
				c0.17-0.08,0.33-0.17,0.5-0.26c0.36-0.19,0.72-0.38,1.08-0.58c0.07-0.04,0.14-0.08,0.21-0.12c1.79-1.01,3.49-2.13,5.09-3.31
				c0.01-0.01,0.03-0.02,0.04-0.03c0.89-0.66,1.74-1.34,2.57-2.05l-0.4-1.68C73.27,125.42,72.62,117.18,73.2,111.08z"/>
			<path class="st6" d="M110.7,110.74c1.23,6.28,1.46,13-0.55,21.5l-0.15,0.63c0.68,0.58,1.38,1.15,2.1,1.71c0,0,0,0,0,0
				c0.36,0.28,0.72,0.55,1.09,0.82c0.1,0.07,0.19,0.14,0.29,0.21c0.35,0.25,0.69,0.49,1.05,0.74c0.12,0.08,0.25,0.17,0.37,0.25
				c0.35,0.24,0.71,0.47,1.07,0.7c0.11,0.07,0.22,0.14,0.33,0.2c1.13,0.7,2.3,1.37,3.52,1.99c0.22,0.11,0.45,0.23,0.67,0.34
				c0.3,0.15,0.61,0.29,0.92,0.43c0.27,0.12,0.53,0.24,0.8,0.36c0.29,0.13,0.59,0.26,0.89,0.38c0.3,0.12,0.61,0.24,0.91,0.36
				c0.28,0.11,0.56,0.22,0.84,0.32c0.4,0.15,0.8,0.28,1.21,0.42c0.2,0.07,0.4,0.14,0.61,0.21c0.6,0.19,1.21,0.37,1.83,0.53
				c0.22,0.06,0.45,0.11,0.68,0.17c0.42,0.11,0.85,0.21,1.28,0.31c0.26,0.06,0.51,0.11,0.77,0.16c0.42,0.09,0.85,0.17,1.27,0.24
				c0.26,0.04,0.52,0.09,0.78,0.13c0.46,0.07,0.93,0.14,1.41,0.19c0.23,0.03,0.46,0.06,0.69,0.09c0.7,0.08,1.42,0.14,2.14,0.19
				c0.14-0.68,0.26-1.35,0.37-2.02c0.04-0.22,0.06-0.44,0.1-0.66c0.07-0.45,0.13-0.89,0.18-1.33c0.03-0.26,0.06-0.52,0.08-0.78
				c0.04-0.4,0.08-0.79,0.1-1.19c0.02-0.27,0.04-0.55,0.05-0.82c0.02-0.38,0.04-0.75,0.05-1.13c0.01-0.28,0.02-0.55,0.02-0.82
				c0-0.37,0-0.74-0.01-1.11c0-0.27,0-0.53-0.01-0.8c-0.01-0.42-0.04-0.84-0.06-1.26c-0.03-0.49-0.07-0.98-0.11-1.46
				c-0.03-0.28-0.05-0.56-0.08-0.83c-0.04-0.36-0.09-0.71-0.14-1.06c-0.03-0.23-0.06-0.47-0.1-0.7c-0.06-0.37-0.12-0.74-0.18-1.1
				c-0.04-0.2-0.07-0.4-0.11-0.6c-0.07-0.39-0.15-0.77-0.23-1.15c-0.03-0.16-0.07-0.31-0.11-0.47c-0.1-0.42-0.19-0.84-0.3-1.25
				c-0.01-0.05-0.03-0.09-0.04-0.14c-0.53-2.04-1.19-4.01-1.94-5.9c0,0,0,0,0,0c-0.27-0.68-0.55-1.34-0.84-2l-1.75-0.12
				C124.56,115.08,116.33,113.18,110.7,110.74z"/>
			<path class="st5" d="M162.5,105.35c-0.1-0.2-0.21-0.4-0.31-0.6c-0.2-0.4-0.41-0.79-0.63-1.18c-0.13-0.23-0.26-0.45-0.39-0.68
				c-0.2-0.35-0.4-0.69-0.61-1.02c-0.14-0.23-0.28-0.46-0.43-0.69c-0.2-0.32-0.41-0.64-0.63-0.95c-0.15-0.22-0.3-0.45-0.45-0.67
				c-0.22-0.31-0.45-0.62-0.67-0.93c-0.15-0.2-0.3-0.41-0.45-0.61c-0.35-0.46-0.71-0.91-1.08-1.35c-0.21-0.26-0.44-0.51-0.65-0.76
				c-0.17-0.2-0.35-0.4-0.52-0.6c-0.24-0.27-0.49-0.53-0.73-0.79c-0.16-0.16-0.31-0.33-0.47-0.49c-0.26-0.27-0.53-0.54-0.8-0.8
				c-0.13-0.13-0.27-0.26-0.41-0.39c-0.29-0.28-0.59-0.56-0.89-0.83c-0.09-0.08-0.17-0.15-0.26-0.23c-2.49-2.21-5.14-4.09-7.85-5.7
				l-1.31,0.82c-6.69,4.2-14.27,6.4-20.28,7.79c4.7,4.27,8.48,9.98,11.91,17.89l0.62,1.42c0.99,0.07,1.99,0.12,3,0.13c0,0,0,0,0,0
				c0.45,0.01,0.91,0,1.36,0c0.09,0,0.19,0,0.28,0c0.43-0.01,0.86-0.02,1.29-0.04c0.11-0.01,0.23-0.01,0.34-0.02
				c0.43-0.02,0.87-0.05,1.3-0.08c0.06,0,0.11-0.01,0.17-0.02c1.35-0.11,2.71-0.28,4.07-0.52c0.22-0.04,0.43-0.07,0.65-0.11
				c0.33-0.06,0.66-0.13,0.99-0.2c0.26-0.05,0.52-0.11,0.78-0.17c0.31-0.07,0.62-0.14,0.93-0.22c0.29-0.07,0.58-0.15,0.88-0.23
				c0.29-0.08,0.57-0.15,0.86-0.24c0.39-0.11,0.78-0.24,1.16-0.36c0.25-0.08,0.5-0.16,0.75-0.25c0.51-0.18,1.02-0.36,1.53-0.56
				c0.22-0.08,0.44-0.18,0.65-0.26c0.38-0.15,0.76-0.31,1.13-0.47c0.23-0.1,0.46-0.21,0.7-0.31c0.37-0.17,0.74-0.34,1.11-0.53
				c0.23-0.11,0.45-0.22,0.68-0.34c0.4-0.2,0.8-0.42,1.2-0.64c0.19-0.11,0.38-0.21,0.58-0.32c0.59-0.33,1.18-0.68,1.76-1.05
				C163.1,106.57,162.8,105.95,162.5,105.35z"/>
			<path class="st5" d="M122.85,74.81c6.34,0.64,12.58,4.08,20.04,8.35l1.12,0.64c0.79-0.49,1.57-1,2.35-1.55c0,0,0,0,0,0
				c0.37-0.26,0.73-0.52,1.1-0.79c0.08-0.06,0.16-0.12,0.24-0.17c0.34-0.25,0.68-0.51,1.01-0.78c0.09-0.07,0.18-0.15,0.28-0.22
				c0.33-0.27,0.67-0.54,1-0.82c0.05-0.05,0.11-0.09,0.16-0.14c1.02-0.87,2.01-1.79,2.97-2.76c0.16-0.16,0.31-0.32,0.47-0.48
				c0.23-0.24,0.46-0.49,0.69-0.74c0.18-0.2,0.36-0.39,0.54-0.6c0.21-0.24,0.42-0.48,0.63-0.72c0.2-0.23,0.39-0.47,0.58-0.7
				c0.19-0.23,0.37-0.46,0.56-0.69c0.25-0.31,0.48-0.64,0.72-0.96c0.15-0.21,0.3-0.41,0.45-0.62c0.32-0.45,0.64-0.91,0.94-1.38
				c0.13-0.19,0.25-0.39,0.37-0.59c0.22-0.35,0.44-0.7,0.65-1.06c0.13-0.22,0.26-0.44,0.38-0.66c0.2-0.35,0.4-0.71,0.6-1.08
				c0.12-0.22,0.24-0.44,0.35-0.67c0.21-0.4,0.41-0.81,0.6-1.22c0.09-0.2,0.19-0.39,0.28-0.59c0.28-0.61,0.56-1.24,0.82-1.88
				c-0.59-0.35-1.19-0.68-1.78-0.99c-0.2-0.1-0.39-0.2-0.59-0.3c-0.4-0.2-0.8-0.41-1.2-0.6c-0.23-0.11-0.47-0.22-0.7-0.32
				c-0.37-0.17-0.73-0.33-1.1-0.48c-0.25-0.1-0.49-0.21-0.74-0.31c-0.36-0.14-0.72-0.28-1.08-0.41c-0.25-0.09-0.49-0.18-0.74-0.27
				c-0.38-0.13-0.77-0.26-1.15-0.38c-0.31-0.1-0.61-0.2-0.92-0.29c-0.47-0.14-0.93-0.27-1.4-0.39c-0.32-0.08-0.63-0.15-0.95-0.23
				c-0.27-0.06-0.53-0.13-0.8-0.19c-0.34-0.08-0.69-0.14-1.03-0.21c-0.23-0.04-0.46-0.09-0.69-0.13c-0.37-0.07-0.73-0.13-1.1-0.18
				c-0.18-0.03-0.37-0.05-0.55-0.08c-0.4-0.06-0.81-0.11-1.21-0.16c-0.08-0.01-0.16-0.02-0.24-0.03c-2.05-0.22-4.07-0.31-6.06-0.28
				c-0.02,0-0.04,0-0.05,0c-1.38,0.02-2.74,0.12-4.08,0.24l-0.18,0.44C131.46,63.65,126.91,70.15,122.85,74.81z"/>
			<path class="st6" d="M91.92,117.35c-2.68,5.67-6.93,10.95-13.3,16.61l-0.61,0.54c0.17,0.72,0.35,1.44,0.55,2.16c0,0,0,0,0,0
				c0.53,1.93,1.19,3.86,1.98,5.78c0.04,0.09,0.07,0.17,0.11,0.26c0.16,0.38,0.33,0.76,0.5,1.13c0.07,0.16,0.15,0.32,0.22,0.48
				c0.16,0.35,0.33,0.69,0.5,1.03c0.1,0.19,0.19,0.39,0.29,0.58c0.17,0.32,0.33,0.65,0.51,0.97c0.12,0.21,0.24,0.43,0.36,0.64
				c0.17,0.3,0.34,0.61,0.52,0.91c0.15,0.25,0.31,0.5,0.47,0.75c0.26,0.42,0.53,0.83,0.81,1.25c0.22,0.33,0.45,0.67,0.68,1
				c0.16,0.22,0.32,0.43,0.48,0.65c0.22,0.3,0.44,0.59,0.67,0.89c0.17,0.22,0.34,0.43,0.52,0.65c0.24,0.29,0.48,0.58,0.72,0.87
				c0.18,0.21,0.36,0.42,0.54,0.62c0.26,0.3,0.53,0.59,0.81,0.88c0.18,0.19,0.36,0.39,0.54,0.58c0.31,0.32,0.63,0.64,0.95,0.95
				c0.16,0.16,0.32,0.32,0.49,0.47c0.5,0.47,1,0.93,1.53,1.39c0.55-0.48,1.08-0.96,1.6-1.46c0.17-0.16,0.33-0.33,0.5-0.49
				c0.34-0.33,0.67-0.66,1-1c0.19-0.2,0.38-0.4,0.56-0.6c0.29-0.31,0.57-0.62,0.84-0.93c0.19-0.22,0.37-0.43,0.56-0.65
				c0.26-0.31,0.51-0.61,0.75-0.92c0.18-0.23,0.36-0.45,0.53-0.68c0.24-0.31,0.46-0.62,0.69-0.94c0.16-0.23,0.33-0.45,0.49-0.68
				c0.24-0.35,0.47-0.69,0.69-1.04c0.26-0.4,0.51-0.79,0.75-1.19c0.19-0.32,0.39-0.63,0.57-0.95c0.18-0.31,0.34-0.61,0.51-0.92
				c0.13-0.24,0.26-0.48,0.39-0.72c0.17-0.33,0.33-0.66,0.5-0.99c0.11-0.22,0.21-0.44,0.32-0.66c0.16-0.35,0.32-0.7,0.48-1.05
				c0.08-0.19,0.17-0.38,0.25-0.58c0.16-0.38,0.32-0.75,0.47-1.13c0.06-0.14,0.11-0.28,0.16-0.43c0.77-2,1.4-4.01,1.9-6.02v0
				c0.1-0.39,0.18-0.79,0.27-1.18l-0.94-0.8C100.87,128.48,95.01,122.57,91.92,117.35z"/>
		</g>
		<path class="st2" d="M75.67,111.08c0.1-1.08,0.23-2.09,0.4-2.99C75.88,109.02,75.74,110.02,75.67,111.08z"/>
		<path class="st2" d="M67.29,76.69c-1.2,0.01-2.51,0.21-3.91,0.57c1.51-0.32,2.86-0.5,3.99-0.52
			C67.34,76.73,67.31,76.71,67.29,76.69z"/>
		<path class="st2" d="M67.32,93.06c-2.39,0.09-4.74-0.08-7.07-0.49c2.11,0.46,4.34,0.66,6.9,0.56c-1.54,1.13-3.03,2.76-4.49,4.8
			C64.32,95.81,65.92,94.13,67.32,93.06z"/>
		<path class="st2" d="M92.59,58.35c0.03-0.09,0.05-0.18,0.08-0.27c-0.46-1.28-1.15-2.55-2.06-3.85c0.92,1.51,1.6,2.9,1.97,4.1
			C92.59,58.34,92.59,58.34,92.59,58.35z"/>
		<path class="st2" d="M76.98,63.49c-1.05-0.75-2.32-1.39-3.78-1.93c1.56,0.68,2.87,1.39,3.84,2.11
			C77.03,63.61,77.01,63.55,76.98,63.49z"/>
		<path class="st2" d="M108.28,63.22c0.52-2.11,0.7-4.46,0.59-7.05c-0.06,2.95-0.37,5.46-0.91,7.3
			C108.07,63.38,108.17,63.3,108.28,63.22z"/>
		<path class="st2" d="M65.15,75.13c-0.69-0.55-1.35-1.14-1.99-1.74C63.77,73.98,64.43,74.55,65.15,75.13z"/>
		<path class="st2" d="M107.49,80.11c-1.55-0.32-3.01-1.17-4.21-2.74c-1.3-1.71-1.76-3.45-1.56-5.18c-1.43,0.61-3.07,0.75-4.91,0.19
			c-2.07-0.63-3.46-1.8-4.29-3.36c-0.77,1.32-1.97,2.38-3.72,3c-2.16,0.76-4.1,0.6-5.8-0.27c0.23,1.66-0.09,3.4-1.27,5.11
			c-1.24,1.8-2.77,2.78-4.51,3.1c1.05,1.18,1.72,2.73,1.76,4.7c0.05,2.2-0.64,3.9-1.87,5.18c1.55,0.33,3,1.19,4.19,2.77
			c1.28,1.7,1.74,3.43,1.53,5.14c1.42-0.58,3.05-0.69,4.86-0.12c2.06,0.65,3.43,1.82,4.25,3.38c0.75-1.3,1.96-2.35,3.75-2.97
			c2.22-0.77,4.21-0.58,5.95,0.35c-0.26-1.69,0.05-3.46,1.25-5.21c1.26-1.84,2.84-2.82,4.62-3.11c-1.11-1.19-1.82-2.75-1.87-4.77
			C105.59,83.1,106.27,81.4,107.49,80.11z"/>
		<path class="st2" d="M107.47,106.28c0.01,0.03,0.02,0.06,0.03,0.09c0,0,0,0,0,0c0.98,0.73,2.15,1.36,3.5,1.9
			c-1.4-0.64-2.59-1.3-3.48-1.96C107.51,106.31,107.49,106.3,107.47,106.28z"/>
		<path class="st2" d="M129.43,89.96c-4.93,2.02-9.43,3.19-12.34,3.18c0,0-0.01,0-0.01,0c1.61,1.07,3.1,2.27,4.49,3.59
			c-1.2-1.22-2.59-2.37-4.29-3.5c0.02,0,0.05,0,0.07,0C120.62,93.24,124.67,92.15,129.43,89.96z"/>
		<path class="st2" d="M130.47,57.07c-0.01,0-0.03,0-0.04,0c-2.16,5.07-4.88,9.84-7.55,13.54C125.54,67.14,128.14,62.8,130.47,57.07
			z"/>
		<path class="st2" d="M91.99,111.09c0,0.01,0,0.02-0.01,0.03c-0.16,0.56-0.34,1.12-0.53,1.67c0.19-0.5,0.36-1.01,0.53-1.54
			c0.2,0.57,0.45,1.16,0.74,1.76c-0.28-0.62-0.51-1.2-0.68-1.74C92.03,111.21,92.01,111.15,91.99,111.09z"/>
		<path class="st2" d="M117.39,76.82c0.14-0.14,0.29-0.29,0.43-0.43c-0.19,0.16-0.37,0.3-0.55,0.43
			C117.31,76.82,117.35,76.82,117.39,76.82z"/>
		<path class="st7" d="M117.11,76.95c-2.71,2.2-6.38,3.83-9.61,3.15c-1.23,1.29-1.9,3-1.84,5.2c0.05,2.02,0.77,3.59,1.87,4.77
			c2.75-0.45,6,0.73,9.42,2.98c0.04,0.03,0.08,0.06,0.12,0.09c0,0,0.01,0,0.01,0c2.91,0.01,7.41-1.16,12.34-3.18
			c2.88-1.32,6.02-3.05,9.41-5.17c-8.46-4.85-13.02-8.33-21.26-7.95c0,0,0.01,0,0.01-0.01c0.02-0.02-0.28,0.05-0.25,0.03
			c0.02-0.02,0.04-0.04,0.05-0.05c-0.04,0-0.08,0-0.12,0C117.22,76.86,117.16,76.91,117.11,76.95z"/>
		<path class="st7" d="M116.95,93.05c-3.42-2.25-6.67-3.43-9.42-2.98c-1.78,0.29-3.36,1.27-4.62,3.11c-1.2,1.75-1.51,3.52-1.25,5.21
			c2.45,1.31,4.4,4.08,5.78,7.8c0.01,0.03,0.02,0.06,0.03,0.09c0.02,0.01,0.04,0.03,0.06,0.04c0.89,0.66,2.08,1.32,3.48,1.96
			c4.45,1.81,10.87,2.72,18.93,3.27c-2.91-6.73-4.74-11.12-8.37-14.82c-1.39-1.32-2.88-2.51-4.49-3.59
			C117.03,93.11,116.99,93.08,116.95,93.05z"/>
		<path class="st5" d="M107.44,106.19c-1.38-3.71-3.33-6.49-5.78-7.8c-1.74-0.93-3.73-1.12-5.95-0.35c-1.79,0.62-3,1.67-3.75,2.97
			c1.32,2.52,1.17,6.05,0.04,10.07c0.02,0.06,0.04,0.12,0.06,0.18c0.17,0.54,0.4,1.12,0.68,1.74c2.31,4.76,7.46,10.42,14.26,16.24
			c2.27-9.6,3.02-15.1,0.27-22.87c0-0.01,0.1-0.1,0.09-0.11c0.05,0.04,0.1,0.08,0.16,0.11c-0.01-0.03-0.02-0.06-0.03-0.09
			C107.46,106.25,107.45,106.22,107.44,106.19z"/>
		<path class="st5" d="M91.99,111.09c1.14-4.02,1.28-7.55-0.04-10.07c-0.82-1.56-2.19-2.73-4.25-3.38
			c-1.81-0.58-3.44-0.46-4.86,0.12c-0.34,2.86-2.51,5.69-5.8,8.34c-0.19,0.15-0.39,0.3-0.58,0.45c-0.09,0.27-0.16,0.56-0.24,0.85
			c-0.05,0.21-0.1,0.42-0.14,0.64c0,0.02-0.01,0.04-0.01,0.06c-0.17,0.9-0.31,1.9-0.4,2.99c-0.34,4.79,0.48,10.99,2.25,18.34
			c6.7-5.95,11.04-9.95,13.54-16.64c0.19-0.55,0.37-1.11,0.53-1.67C91.98,111.1,91.99,111.1,91.99,111.09z"/>
		<path class="st7" d="M82.85,97.75c0.2-1.72-0.26-3.44-1.53-5.14c-1.19-1.58-2.64-2.44-4.19-2.77c-1.96,2.04-5.31,3.02-9.44,3.21
			c-0.12,0.01-0.24,0-0.37,0.01c-1.4,1.07-3.01,2.75-4.66,4.87c-2.64,3.7-5.2,8.79-7.76,14.98c9.27-0.99,14.09-1.1,20.41-5.69
			c0.28-0.21,0.92-0.63,1.2-0.84c-0.02,0.05-0.03,0.1-0.04,0.15c0.19-0.15,0.39-0.29,0.58-0.45
			C80.33,103.44,82.51,100.61,82.85,97.75z"/>
		<path class="st7" d="M67.32,93.06c0.12,0,0.24,0,0.37-0.01c4.12-0.2,7.48-1.18,9.44-3.21c1.23-1.28,1.91-2.99,1.87-5.18
			c-0.04-1.98-0.71-3.52-1.76-4.7c-2.77,0.51-6.07-0.68-9.53-2.96c-0.12-0.08-0.22-0.16-0.33-0.24c-1.13,0.01-2.48,0.19-3.99,0.52
			C58.64,78.5,52.79,81.68,45.9,86c5.73,3.28,9.76,5.56,14.35,6.56C62.59,92.98,64.93,93.15,67.32,93.06z"/>
		<path class="st4" d="M67.7,76.99c3.46,2.28,6.76,3.47,9.53,2.96c1.74-0.32,3.27-1.29,4.51-3.1c1.18-1.71,1.5-3.45,1.27-5.11
			c-2.48-1.27-4.46-4.07-5.88-7.84c-0.03-0.08-0.06-0.16-0.08-0.24c-0.98-0.71-2.29-1.42-3.84-2.11c-4.46-1.66-10.78-2.46-18.6-2.96
			c2.98,6.81,4.74,11.06,8.56,14.78c0.64,0.6,1.3,1.19,1.99,1.74c0.09,0.07,0.19,0.15,0.29,0.22c0.48,0.38,0.99,0.73,1.49,1.08
			c0.13,0.09,0.24,0.17,0.37,0.26c0,0-0.01,0-0.01,0c0.03,0.02,0.05,0.04,0.08,0.06C67.48,76.83,67.58,76.91,67.7,76.99z"/>
		<path class="st8" d="M77.13,63.91c1.41,3.77,3.39,6.57,5.88,7.84c1.7,0.87,3.64,1.03,5.8,0.27c1.75-0.62,2.95-1.68,3.72-3
			c-1.33-2.51-1.22-6.04-0.11-10.08c0.05-0.2,0.12-0.39,0.18-0.59c0,0,0-0.01-0.01-0.01c-0.38-1.2-1.05-2.59-1.97-4.1
			c-2.65-3.8-7.12-7.8-12.86-12.63c-2.12,9.35-3.35,14.38-0.64,21.97c-0.04-0.03-0.09-0.06-0.13-0.09c0.02,0.06,0.04,0.12,0.06,0.18
			C77.07,63.75,77.1,63.83,77.13,63.91z"/>
		<path class="st8" d="M92.42,58.93c-1.1,4.03-1.22,7.57,0.11,10.08c0.83,1.56,2.22,2.73,4.29,3.36c1.84,0.56,3.48,0.42,4.91-0.19
			c0.34-2.85,2.49-5.68,5.74-8.33c0.16-0.13,0.33-0.26,0.5-0.39c0.54-1.84,0.85-4.35,0.91-7.3c-0.18-4.14-1.11-8.89-2.6-14.3
			c-7.19,6.47-11.22,8.62-13.55,16.33c-0.01-0.04-0.03-0.08-0.05-0.12c-0.03,0.09-0.05,0.18-0.08,0.27
			C92.53,58.54,92.47,58.74,92.42,58.93z"/>
		<path class="st4" d="M107.46,63.85c-3.25,2.65-5.4,5.49-5.74,8.33c-0.21,1.73,0.26,3.47,1.56,5.18c1.2,1.58,2.66,2.42,4.21,2.74
			c3.24,0.67,6.9-0.95,9.61-3.15c0.05-0.04,0.11-0.09,0.17-0.13c0.18-0.14,0.36-0.28,0.55-0.43c1.66-1.66,3.37-3.54,5.06-5.76
			c2.67-3.71,5.38-8.47,7.55-13.54c-9.15,1.04-14.55,1.35-21.19,5.64c-0.34,0.25-0.68,0.5-1.02,0.77c0.02-0.09,0.03-0.18,0.05-0.27
			c-0.11,0.08-0.21,0.17-0.32,0.25C107.79,63.59,107.63,63.72,107.46,63.85z"/>
		<path class="st0" d="M144.01,83.81l-1.12-0.64c-7.45-4.27-13.7-7.71-20.04-8.35c4.05-4.66,8.61-11.16,11.55-18.4l0.18-0.44
			l1.2-2.95l-2.01,0.23l-1.63,0.18c-8.46,0.96-15.36,2.21-20.87,5.38c0.54-6.1,0.34-13.94-1.5-21.36l-0.12-0.48l-0.75-3.04
			l-1.67,1.5l-1.03,0.92c-6.37,5.73-11.11,10.68-13.75,16.4c-3.15-5.2-8.52-11.39-14.26-16.21l-0.1-0.08l-2.63-2.21l-0.75,3.33
			l-0.03,0.15c-1.91,8.45-2.25,15.3-1.01,21.53c-5.64-2.38-13.8-4.22-21.59-4.71l-1.14-0.07l-2.43-0.16l1.21,2.77l0.22,0.5
			c3.43,7.85,7.2,13.52,11.89,17.76c-6,1.41-13.72,4.72-20.35,8.88l-0.78,0.49l-2.29,1.44l2.61,1.49l0.54,0.31
			c7.38,4.23,13.76,6.54,20.04,7.2c-4.05,4.64-8.38,11.76-11.31,18.86l-0.5,1.2l-0.9,2.18l3.21-0.34l0.43-0.05
			c8.46-0.91,15.15-2.82,20.68-5.94c-0.58,6.1,0.08,14.34,1.86,21.77l0.4,1.68l0.44,1.85l2.1-1.86l0.61-0.54
			c6.37-5.66,10.62-10.94,13.3-16.61c3.09,5.21,8.95,11.13,14.69,16.04l0.94,0.8l1.77,1.52l0.67-2.85l0.15-0.63
			c2.01-8.51,1.78-15.22,0.55-21.5c5.63,2.44,13.87,4.34,21.75,4.87l1.75,0.12l1.81,0.12l-0.8-1.85l-0.62-1.42
			c-3.42-7.91-7.2-13.62-11.91-17.89c6.01-1.39,13.59-3.6,20.28-7.79l1.31-0.82l1.76-1.1L144.01,83.81z M121.57,96.73
			c3.63,3.7,5.45,8.09,8.37,14.82c-8.07-0.55-14.49-1.47-18.93-3.27c-1.35-0.55-2.53-1.18-3.5-1.9c0,0,0,0,0,0
			c-0.05-0.04-0.1-0.07-0.16-0.11c0,0.01-0.1,0.1-0.09,0.11c2.75,7.76,2.01,13.26-0.27,22.87c-6.8-5.82-11.95-11.48-14.26-16.24
			c-0.29-0.6-0.54-1.19-0.74-1.76c-0.17,0.53-0.34,1.04-0.53,1.54c-2.5,6.69-6.84,10.69-13.54,16.64
			c-1.77-7.35-2.59-13.55-2.25-18.34c0.07-1.07,0.21-2.06,0.4-2.99c0-0.02,0.01-0.04,0.01-0.06c0.04-0.22,0.1-0.43,0.14-0.64
			c0.07-0.29,0.15-0.58,0.24-0.85c0.02-0.05,0.03-0.1,0.04-0.15c-0.28,0.21-0.92,0.63-1.2,0.84c-6.32,4.59-11.13,4.69-20.41,5.69
			c2.56-6.19,5.11-11.28,7.76-14.98c1.46-2.05,2.95-3.67,4.49-4.8c-2.57,0.1-4.79-0.1-6.9-0.56c-4.59-1.01-8.62-3.28-14.35-6.56
			c6.89-4.32,12.74-7.5,17.48-8.74c1.4-0.36,2.7-0.57,3.91-0.57c0,0,0.01,0,0.01,0c-0.13-0.09-0.25-0.17-0.37-0.26
			c-0.5-0.35-1.01-0.7-1.49-1.08c-0.1-0.07-0.2-0.15-0.29-0.22c-0.72-0.57-1.38-1.15-1.99-1.74c-3.82-3.72-5.58-7.97-8.56-14.78
			c7.82,0.5,14.14,1.3,18.6,2.96c1.46,0.54,2.73,1.18,3.78,1.93c0.04,0.03,0.09,0.06,0.13,0.09c-2.72-7.6-1.49-12.63,0.64-21.97
			c5.75,4.83,10.22,8.83,12.86,12.63c0.9,1.3,1.6,2.57,2.06,3.85c0.01,0.04,0.03,0.08,0.05,0.12c2.32-7.72,6.36-9.86,13.55-16.33
			c1.5,5.41,2.42,10.16,2.6,14.3c0.11,2.59-0.06,4.94-0.59,7.05c-0.02,0.09-0.03,0.18-0.05,0.27c0.34-0.26,0.67-0.52,1.02-0.77
			c6.64-4.28,12.03-4.6,21.19-5.64c0.01,0,0.03,0,0.04,0c-2.33,5.73-4.94,10.06-7.59,13.55c-1.69,2.22-3.4,4.1-5.06,5.76
			c-0.14,0.14-0.29,0.29-0.43,0.43c-0.02,0.02-0.04,0.04-0.05,0.05c-0.02,0.02,0.28-0.05,0.25-0.03c0,0-0.01,0-0.01,0.01
			c8.24-0.38,12.8,3.1,21.26,7.95c-3.39,2.13-6.53,3.85-9.41,5.17c-4.76,2.19-8.8,3.28-12.08,3.26c-0.02,0-0.05,0-0.07,0
			C118.97,94.36,120.37,95.51,121.57,96.73z"/>
		<path class="st8" d="M113.03,56.55c6.81-3.01,11.35-10.89,13.36-18.52c0.1-0.33,0.19-0.7,0.29-1.05c-0.37,0.29-0.74,0.58-1.1,0.88
			C118.41,43.85,113.71,50.21,113.03,56.55z"/>
		<path class="st8" d="M92.37,49.5c3.51-6.46,2.57-15.33-0.23-22.56c-0.01-0.03-0.03-0.07-0.04-0.11c-0.04,0.16-0.09,0.31-0.13,0.47
			C89.64,36.18,89.46,43.96,92.37,49.5z"/>
		<path class="st7" d="M126.07,74.03c7.22,1.41,15.34-2.3,21.32-7.27c0.12-0.09,0.25-0.21,0.37-0.3c-0.27,0.01-0.54,0.02-0.82,0.03
			C137.77,67.1,130.35,69.42,126.07,74.03z"/>
		<path class="st7" d="M126.42,96.22c5.04,5.29,13.67,7.06,21.33,6.58c-0.1-0.06-0.18-0.14-0.28-0.2
			C139.8,97.68,132.52,95.14,126.42,96.22z"/>
		<path class="st3" d="M113.49,114.42c0.98,7.21,6.82,13.71,13.22,17.87c-0.02-0.07-0.05-0.13-0.07-0.2
			C123.36,123.59,119.02,117.21,113.49,114.42z"/>
		<path class="st3" d="M92.26,121.46c-3.33,6.31-2.51,14.85,0.12,21.93C94.74,134.66,95.01,127,92.26,121.46z"/>
		<path class="st3" d="M71.68,113.95c-6.9,2.91-11.55,10.79-13.64,18.45c-0.14,0.41-0.25,0.87-0.38,1.31
			c0.44-0.35,0.89-0.68,1.33-1.04C66.24,126.69,71,120.32,71.68,113.95z"/>
		<path class="st7" d="M58.73,96.49c-7.21-1.46-15.36,2.19-21.37,7.13c-0.12,0.09-0.25,0.21-0.38,0.3c0.28-0.01,0.55-0.01,0.83-0.03
			C46.99,103.35,54.43,101.07,58.73,96.49z"/>
		<path class="st7" d="M58.71,74.48c-4.99-5.48-13.73-7.34-21.49-6.9c-0.17,0-0.37,0.02-0.55,0.02c0.26,0.17,0.49,0.36,0.75,0.53
			C45.19,73.12,52.55,75.67,58.71,74.48z"/>
		<path class="st8" d="M71.42,56.46c-0.93-7.32-6.88-13.93-13.37-18.11c-0.05-0.04-0.12-0.07-0.17-0.11
			c0.07,0.18,0.12,0.35,0.19,0.53C61.4,47.34,65.81,53.73,71.42,56.46z"/>
		<path class="st2" d="M107.52,80.16c-1.55-0.32-3.01-1.17-4.21-2.74c-1.3-1.71-1.76-3.45-1.56-5.18c-1.43,0.61-3.07,0.75-4.91,0.19
			c-2.11-0.65-3.51-1.85-4.34-3.46c-0.79,1.41-2.05,2.56-3.93,3.23c-2.08,0.73-3.91,0.6-5.51-0.21c0.18,1.61-0.16,3.28-1.29,4.93
			c-1.24,1.8-2.77,2.78-4.51,3.1c1.05,1.18,1.72,2.73,1.76,4.7c0.05,2.2-0.64,3.9-1.87,5.18c1.55,0.33,3,1.19,4.19,2.77
			c1.28,1.7,1.74,3.43,1.53,5.14c1.42-0.58,3.05-0.69,4.86-0.12c2.15,0.68,3.55,1.93,4.35,3.6c0.79-1.45,2.07-2.64,4-3.31
			c2.11-0.73,3.96-0.58,5.57,0.26c-0.2-1.63,0.14-3.32,1.28-5c1.26-1.84,2.84-2.82,4.62-3.11c-1.11-1.19-1.82-2.75-1.87-4.77
			C105.62,83.15,106.29,81.45,107.52,80.16z"/>
		<g>
			<path class="st7" d="M101.75,72.23c3.08-1.32,5.16-4.83,6.1-8.25c0.05-0.15,0.09-0.31,0.14-0.47c-0.17,0.13-0.33,0.25-0.5,0.39
				C104.23,66.56,102.09,69.39,101.75,72.23z"/>
			<path class="st6" d="M82.87,97.8c-3.11,1.27-5.24,4.79-6.22,8.21c-0.06,0.18-0.12,0.39-0.18,0.59c0.2-0.15,0.4-0.3,0.6-0.46
				C80.36,103.49,82.53,100.66,82.87,97.8z"/>
			<path class="st5" d="M77.15,89.89c-3.23-0.69-6.91,0.9-9.64,3.09c-0.06,0.04-0.11,0.09-0.17,0.13c0.12,0,0.25,0,0.37-0.01
				C71.84,92.91,75.19,91.92,77.15,89.89z"/>
			<path class="st5" d="M107.52,80.16c3.24,0.67,6.9-0.95,9.61-3.15c0.05-0.04,0.11-0.09,0.17-0.13c-0.12,0.01-0.24,0-0.37,0.01
				C112.81,77.1,109.46,78.11,107.52,80.16z"/>
			<path class="st5" d="M107.55,90.13c2.24,2.4,6.1,3.25,9.55,3.07c-0.04-0.03-0.08-0.06-0.12-0.09
				C113.56,90.85,110.3,89.67,107.55,90.13z"/>
			<path class="st5" d="M77.26,80c-2.21-2.49-6.13-3.37-9.62-3.21c-0.08,0-0.17,0.01-0.25,0.01c0.11,0.08,0.22,0.17,0.33,0.24
				C71.19,79.32,74.48,80.51,77.26,80z"/>
			<path class="st6" d="M91.97,101.04c-1.5,2.83-1.14,6.67,0.03,9.85C93.07,106.97,93.2,103.53,91.97,101.04z"/>
			<path class="st6" d="M101.65,98.23c0.4,3.24,2.99,6.2,5.84,8.1c-0.01-0.03-0.02-0.06-0.03-0.09
				C106.04,102.4,104.12,99.51,101.65,98.23z"/>
			<path class="st4" d="M92.51,68.96c1.61-2.88,1.23-6.87,0.02-10.13c0-0.02-0.01-0.03-0.02-0.05c-0.02,0.07-0.04,0.14-0.06,0.21
				C91.35,62.96,91.23,66.46,92.51,68.96z"/>
			<path class="st7" d="M83.06,71.98c-0.38-3.29-3.02-6.29-5.91-8.21c-0.02-0.02-0.05-0.03-0.08-0.05c0.03,0.08,0.05,0.16,0.08,0.24
				C78.61,67.83,80.56,70.72,83.06,71.98z"/>
		</g>
	</g>
	<g>
		<path class="st9" d="M202.38,39.4c-2.63,2.74-2.74,13.17-2.74,32.04v4.5c0,17.23,0.44,27.1,0.99,29.74
			c2.08,0.11,3.95,0.11,5.82,0.11c10.2,0,16.46-1.54,20.74-7.68l-2.41,10.97c-2.96,0.55-6.58,0.88-10.97,0.88
			c-5.82,0-13.28-0.22-22.49-0.22h-3.84c2.63-2.74,2.74-13.17,2.74-32.15v-4.5c0-19.86,0-30.72-2.74-33.69H202.38z"/>
		<path class="st9" d="M238.48,77.58v-4.5c0-19.86,0-30.72-2.74-33.69h14.92c-2.63,2.63-2.74,12.51-2.74,30.83v8.56
			c0,18.32,0.11,28.31,2.74,30.94h-14.92C238.37,106.99,238.48,96.56,238.48,77.58z"/>
		<path class="st9" d="M286.65,72.09c4.94,0,9.98-0.33,15.36-1.32c-3.51,5.93-10.42,6.36-22.38,6.36h-4.06v5.38
			c0,15.36,0,24.14,2.74,27.21h-14.92c2.63-2.74,2.74-13.17,2.74-32.15v-4.5c0-19.86,0-30.72-2.74-33.69h7.57
			c5.27,0,11.96-0.33,20.3-0.33c4.83,0,8.78,0.22,11.85,0.66l0.44,9.11c-2.52-4.5-8.34-5.49-18.87-5.49c-2.74,0-5.38,0.11-8.12,0.33
			c-0.77,3.62-0.99,10.97-0.99,22.82v5.27C279.95,71.98,283.68,72.09,286.65,72.09z"/>
		<path class="st9" d="M314.41,77.58v-4.5c0-19.86,0-30.72-2.74-33.69h6.8c12.84,0,22.05-0.33,27.76-0.33
			c0.44,0,1.65,0.11,3.84,0.11l0.88,10.31c-2.08-5.6-8.45-6.03-19.97-6.03h-6.14c-0.77,3.4-0.99,11.08-0.99,23.04v3.62
			c2.52,0.33,5.38,0.22,8.56,0.22c7.02,0,13.17-0.22,18.76-1.21c-5.27,5.82-13.06,6.36-24.47,6.36c-0.77,0-1.65-0.11-2.85-0.11v7.13
			c0,11.96,0.22,19.75,0.99,23.15h6.36c12.4,0,20.08-1.43,24.8-7.57l-1.87,10.97c-2.96,0.55-6.58,0.88-10.97,0.88
			c-5.82,0-13.28-0.22-22.49-0.22h-9C314.29,106.99,314.41,96.56,314.41,77.58z"/>
	</g>
	<g>
		<path class="st0" d="M364.56,54.37v-1.8c0-7.94,0-12.29-1.1-13.47h5.97c-1.05,1.05-1.1,5-1.1,12.33v3.42
			c0,7.33,0.04,11.32,1.1,12.38h-5.97C364.52,66.13,364.56,61.96,364.56,54.37z"/>
		<path class="st0" d="M372.15,61.3c1.71,2.94,4.43,4.48,7.9,4.48c3.51,0,5.75-2.33,5.75-5.35c0-2.63-1.58-4.26-4.7-5.97
			c-4.56-2.46-7.99-4.17-7.99-8.56c0-4.08,3.38-7.33,9.13-7.33c2.24,0,3.82,0.18,4.65,0.18c0.22,0,0.48,0.04,0.83,0.04h1.1v4.56
			c-1.14-1.89-3.07-2.85-5.79-2.85c-3.86,0-5.93,1.84-5.93,4.43c0,3.12,2.68,4.43,6.1,6.23c4.52,2.41,6.76,4.61,6.76,8.07
			c0,4.52-4.21,8.51-10.05,8.51c-2.46,0-4.96-0.61-7.77-1.67V61.3z"/>
		<path class="st0" d="M413.15,52.17c1.97,0,3.99-0.13,6.14-0.53c-1.4,2.37-4.17,2.55-8.95,2.55h-1.62v2.15c0,6.14,0,9.66,1.1,10.88
			h-5.97c1.05-1.1,1.1-5.27,1.1-12.86v-1.8c0-7.94,0-12.29-1.1-13.47h3.03c2.11,0,4.78-0.13,8.12-0.13c1.93,0,3.51,0.09,4.74,0.26
			l0.18,3.64c-1.01-1.8-3.34-2.19-7.55-2.19c-1.1,0-2.15,0.04-3.25,0.13c-0.31,1.45-0.4,4.39-0.4,9.13v2.11
			C410.47,52.13,411.96,52.17,413.15,52.17z"/>
		<path class="st0" d="M421.13,53.71c0-9.83,4.91-15.14,14.18-15.14c8.69,0,13.03,4.61,13.03,13.78c0,9.39-5.66,15.4-14.31,15.4
			C425.74,67.75,421.13,62.79,421.13,53.71z M443.96,53.93c0-8.56-3.51-13.39-9.13-13.39c-5.66,0-9.26,4.13-9.26,11.98
			c0,8.47,3.69,13.12,9.83,13.12C440.66,65.64,443.96,61.48,443.96,53.93z"/>
		<path class="st0" d="M462.21,38.79c4.52,0,6.76,1.89,6.76,5.62c0,3.64-2.24,6.41-6.67,8.29l6.28,8.73
			c2.11,2.9,3.86,4.83,5.27,5.79h-4.17c-1.1,0-1.54-0.22-2.2-1.14l-7.5-10.53c-0.88-1.23-1.54-1.89-3.34-1.89h-0.35v2.68
			c0,6.19,0,9.66,1.1,10.88h-5.97c1.05-1.1,1.1-5.18,1.1-12.86v-1.8c0-7.94,0-12.29-1.1-13.47h1.27
			C457.26,39.09,460.33,38.79,462.21,38.79z M458.13,52.13c4.39,0,6.63-2.37,6.63-6.45c0-3.42-1.76-5.13-5.31-5.13
			c-0.83,0-1.71,0-2.76,0.13c-0.31,1.4-0.4,4.34-0.4,8.78v2.5C456.73,52.08,457.34,52.13,458.13,52.13z"/>
	</g>
	<g>
		<path class="st6" d="M376.38,127.62c1.7-2.46,3.03-5.39,3.79-8.8l2.46-11.45c11.64-4.35,22.52-14.01,22.52-27.73
			c0-6.53-3.03-10.69-10.13-10.69c-10.98,0-16.85,12.02-19.5,23.09c-0.66,2.74-1.42,6.62-2.18,10.69h-0.28
			c-4.64,0-8.71-0.95-10.98-1.7c-0.38,1.32-0.76,2.74-0.76,3.97c0,2.74,1.7,4.92,8.23,4.92c0.76,0,1.61,0,2.37-0.09
			c-0.95,4.73-1.89,9.27-2.84,12.3c-3.03-1.99-6.34-3.31-10.22-3.31c-7.1,0-9.94,3.98-9.94,7.95c0,4.92,4.26,8.61,11.83,8.61
			c3.79,0,7.29-0.95,10.22-2.74c5.77,6.25,12.11,13.63,20.25,13.63c7.76,0,9.37-6.53,9.37-10.41c-2.18,0.57-4.16,0.85-7,0.85
			C386.79,136.71,381.58,132.16,376.38,127.62z M386.41,89.67c2.65-11.17,5.49-15.52,8.14-15.52c1.51,0,2.46,1.23,2.46,4.45
			c0,9.75-4.83,17.89-12.87,21.77L386.41,89.67z M360.95,130.37c-2.84,0-5.21-1.14-5.21-3.97c0-1.51,0.66-2.37,2.65-2.37
			c2.65,0,5.3,1.61,7.85,3.97C364.74,129.7,362.84,130.37,360.95,130.37z"/>
		<path class="st6" d="M417.36,85.32c0.76,0,1.42-0.1,1.99-0.28c1.99-0.57,6.53-9.46,5.96-10.79c-0.85-1.8-2.84-3.41-5.87-3.41
			c-3.6,0-6.62,5.02-6.62,9.28c0,1.04,0.1,1.99,0.47,2.84C414.14,84.65,415.75,85.32,417.36,85.32z"/>
		<path class="st6" d="M458.15,92.13c-2.27,0-4.07,0.57-5.39,1.61c0.57,2.65,1.23,5.49,1.23,8.99c0,0.85,0,1.61-0.1,2.46
			c-1.04,10.13-10.69,22.71-15.05,22.71c-1.04,0-1.89-0.57-2.18-1.89c-0.19-0.66-0.19-1.51-0.19-2.46c0-5.87,2.56-15.71,3.88-19.5
			c0.76-1.89,1.04-3.5,1.04-4.92c0-5.02-3.97-7.1-8.04-7.1c-0.38,0-0.85,0.09-1.33,0.09c-1.11,4.79-2.22,9.84-3.2,14.58
			c0,0-0.01,0-0.01,0c-4.07,8.23-11.36,20.54-15.99,20.54c-0.47,0-0.66-0.66-0.66-1.61c0-6.91,6.81-23.76,6.81-27.54
			c0-4.73-4.83-6.06-9.94-5.96c-1.32,7.57-6.72,30.1-7.29,33.6c-0.1,0.38-0.1,0.85-0.1,1.23c0,4.92,4.07,8.42,9.09,8.42
			c5.1,0,11.34-8.7,15.77-16.52c-0.51,3.11-0.82,5.56-0.82,6.96c0,4.54,4.45,9.56,10.41,9.56c10.22,0,28.68-21.29,28.68-35.11
			C464.77,95.06,461.74,92.13,458.15,92.13z"/>
		<path class="st6" d="M481.81,85.32c0.76,0,1.42-0.1,1.99-0.28c1.99-0.57,6.53-9.46,5.96-10.79c-0.85-1.8-2.84-3.41-5.87-3.41
			c-3.6,0-6.62,5.02-6.62,9.28c0,1.04,0.1,1.99,0.47,2.84C478.59,84.65,480.2,85.32,481.81,85.32z"/>
		<path class="st6" d="M588.37,107.18c-3.31,7.38-8.61,13.72-14.1,18.55c1.8-7,4.07-14.48,7.48-26.31c0.1-0.28,0.1-0.66,0.1-0.95
			c0-3.5-5.58-5.49-8.99-5.49c-0.47,0-0.95,0-1.42,0.09l-0.19,2.37c-3.12-2.08-7-3.31-11.07-3.31c-11.37,0-17.65,9.52-20.65,18.89
			c-4.57,8.31-9.98,16.22-13.61,16.22c-0.19,0-0.28-0.38-0.28-0.85c0-3.97,6.25-21.86,6.25-27.63c0-3.6-3.5-6.72-7.29-6.72
			c-10.22,0-19.59,14.29-24.51,25.17l-0.38-0.28c1.51-5.58,6.06-15.62,6.06-18.93c0-4.64-5.49-5.87-9.28-5.87
			c-0.8,2.9-2.41,9.29-3.97,16.06c-4.17,8.15-10.88,19.05-15.25,19.05c-0.47,0-0.66-0.66-0.66-1.61c0-6.91,6.81-23.76,6.81-27.54
			c0-4.73-4.83-6.06-9.94-5.96c-1.32,7.57-6.72,30.1-7.29,33.6c-0.1,0.38-0.1,0.85-0.1,1.23c0,4.92,4.07,8.42,9.09,8.42
			c4.69,0,10.34-7.36,14.67-14.62c-0.69,3.69-1.14,6.76-1.14,8.47c0,3.6,4.35,6.25,9.56,6.25c0.19-1.42,0.47-5.21,0.95-7.48
			c4.07-13.34,16.18-28.11,20.63-28.11c0.47,0,0.66,0.47,0.66,1.32c0,4.07-5.87,21.2-5.87,25.74c0,3.6,3.22,8.42,9.18,8.42
			c3.94,0,8.92-5.7,13.51-13.11c-0.05,0.76-0.08,1.47-0.08,2.13c0,6.81,5.01,10.98,8.99,10.98c6.34,0,15.99-11.26,22.43-25.36
			l0.38,0.1c-1.04,5.49-3.6,14.29-5.49,22.52c-9.56,5.39-23.94,12.02-23.94,21.01c0,5.11,4.73,9.37,12.11,9.37
			c13.15,0,16.75-14.2,20.92-30.95c7.57-5.39,14.48-13.15,18.55-23.19C591.21,107.56,590.07,107.08,588.37,107.18z M549.19,158.1
			c-2.55,0-3.69-2.08-3.69-3.79c0-5.3,9.09-11.26,16.84-15.9C559.88,150.33,555.72,158.1,549.19,158.1z M550.23,126.2
			c-1.32,0-2.08-1.33-2.08-4.26c0-0.57,0-1.23,0.1-1.99c0.85-9.37,5.68-21.48,11.07-21.48c3.12,0,6.72,1.04,10.13,3.69
			C562.06,116.36,553.83,126.2,550.23,126.2z"/>
	</g>
</g>
</svg>
