<?xml version="1.0" encoding="utf-8"?>
<!-- Generator: Adobe Illustrator 24.0.0, SVG Export Plug-In . SVG Version: 6.00 Build 0)  -->
<svg version="1.1" id="Layer_1" xmlns="http://www.w3.org/2000/svg" xmlns:xlink="http://www.w3.org/1999/xlink" x="0px" y="0px"
	 viewBox="0 0 50 50" width="36px" height="36px" style="enable-background:new 0 0 50 50;" xml:space="preserve">
<style type="text/css">
	.st0{fill:#80A694;}
	.st1{fill:#FFFFFF;}
</style>
<path class="st0" d="M13.04,13.88c6.15,0,11.14,4.99,11.14,11.14c0,6.15-4.99,11.14-11.14,11.14c-6.15,0-11.14-4.99-11.14-11.14
	C1.91,18.87,6.89,13.88,13.04,13.88z"/>
<path class="st0" d="M25.98,14.31c6.15,0,11.14,4.99,11.14,11.14c0,6.15-4.99,11.14-11.14,11.14c-6.15,0-11.14-4.99-11.14-11.14
	C14.85,19.29,19.83,14.31,25.98,14.31z"/>
<path class="st0" d="M14.42,36.76c0-6.15,4.99-11.14,11.14-11.14c6.15,0,11.14,4.99,11.14,11.14c0,6.15-4.99,11.14-11.14,11.14
	C19.41,47.9,14.42,42.91,14.42,36.76z"/>
<circle class="st0" cx="37.86" cy="24.6" r="11.14"/>
<circle class="st0" cx="25.77" cy="12.86" r="11.14"/>
<path class="st1" d="M44.98,24.39c-0.1-0.71-0.31-1.44-0.63-2.18c-0.32-0.74-0.82-1.49-1.49-2.26c-0.63-0.71-1.19-1.12-2.23-1.95
	l0.01,0.01c-1.9-1.26-4.89-1.7-4.89-1.7c-1.42-0.14-2-0.12-3.24-0.02c-1.34,0.11-2.63,0.34-3.89,0.44c-1.26,0.1-2.28,0.06-3.03-0.12
	c-0.76-0.19-1.43-0.54-2.01-1.05c-0.58-0.51-1.01-1.05-1.29-1.61c-0.29-0.57-0.45-1.18-0.48-1.82c-0.03-0.64,0.15-1.35,0.53-2.11
	c0.38-0.76,0.88-1.33,1.48-1.72c0.6-0.39,1.32-0.55,2.14-0.5c0.82,0.06,1.51,0.28,2.06,0.67c0.55,0.39,0.93,0.86,1.16,1.39
	c0.23,0.54,0.24,1.03,0.06,1.48c-0.19,0.45-0.36,0.74-0.67,0.92c-0.31,0.18-0.68,0.23-1.08,0.15c-0.19-0.04-0.55-0.3-0.5-0.6
	c0-0.01,0.01-0.01,0.01-0.01c0.06-0.07,0.11-0.16,0.13-0.27c0.05-0.22-0.11-0.33-0.47-0.34c-0.36-0.01-0.72,0.14-1.06,0.46
	c-0.36,0.31-0.55,0.72-0.58,1.22c-0.03,0.5,0.12,0.97,0.46,1.39c0.34,0.42,0.76,0.72,1.27,0.91c0.51,0.18,1.06,0.25,1.67,0.22
	c0.6-0.04,1.18-0.24,1.72-0.59c0.55-0.35,1.44-1.04,1.81-2.43c0.21-0.86,0.26-1.7,0.01-2.54c-0.24-0.82-0.58-1.44-1.01-1.9
	c-0.47-0.5-1.92-2.07-5.01-2.13c-0.98-0.02-1.9,0.18-2.75,0.68c-0.85,0.5-1.49,1.03-1.92,1.6c-0.43,0.57-0.79,1.23-1.08,1.97
	c-0.3,0.75-0.47,1.63-0.53,2.64c-0.06,1.01,0.07,1.73,0.25,3.26c0.85,7.36-1.99,10.07-1.99,10.07c-0.85,0.94-1.6,1.63-2.3,1.97
	c-0.98,0.47-1.74,0.61-2.41,0.68c-0.72,0.03-1.73-0.06-2.33-0.26c-0.61-0.2-1.15-0.52-1.63-0.96c-0.48-0.44-0.85-1.06-1.11-1.88
	c-0.27-0.81-0.32-1.57-0.16-2.28c0.15-0.7,0.55-1.33,1.17-1.87c0.63-0.54,1.28-0.87,1.95-0.98c0.67-0.11,1.27-0.05,1.81,0.18
	c0.54,0.22,0.9,0.56,1.09,1.02c0.18,0.45,0.27,0.78,0.18,1.13c-0.09,0.35-0.32,0.65-0.66,0.87c-0.16,0.1-0.6,0.18-0.78-0.08
	c0-0.01,0-0.01,0-0.02c-0.01-0.1-0.04-0.19-0.1-0.28c-0.12-0.19-0.31-0.16-0.58,0.09c-0.26,0.25-0.41,0.61-0.44,1.08
	c-0.03,0.47,0.12,0.9,0.45,1.29c0.33,0.38,0.77,0.6,1.31,0.67c0.54,0.06,1.06-0.02,1.55-0.25c0.49-0.23,0.94-0.57,1.34-1.03
	c0.4-0.45,0.67-1,0.81-1.64c0.14-0.64,0.29-1.76-0.43-3.02c-0.46-0.77-1.02-1.4-1.8-1.82c-0.75-0.41-1.44-0.62-2.07-0.64
	c-0.7-0.02-2.84-0.11-5.09,2.04c-0.72,0.68-1.22,1.48-1.48,2.44c-0.25,0.96-0.33,1.8-0.23,2.51c0.1,0.71,0.31,1.44,0.63,2.18
	c0.32,0.74,0.82,1.49,1.5,2.25c0.68,0.77,1.42,1.45,2.49,2.15c0,0,0,0,0.01,0c2.34,1.25,4.96,1.47,4.96,1.47
	c0.89,0.04,2,0.12,3.24,0.02c1.34-0.11,2.63-0.34,3.89-0.44c1.26-0.1,2.27-0.06,3.03,0.13c0.76,0.18,1.43,0.54,2.01,1.05
	c0.58,0.51,1.01,1.05,1.29,1.61c0.29,0.57,0.45,1.18,0.48,1.82c0.03,0.65-0.14,1.35-0.53,2.11c-0.38,0.76-0.88,1.33-1.49,1.72
	c-0.6,0.39-1.32,0.55-2.14,0.5c-0.82-0.06-1.51-0.28-2.06-0.67c-0.55-0.39-0.93-0.86-1.16-1.39c-0.22-0.54-0.24-1.03-0.06-1.48
	c0.19-0.45,0.36-0.74,0.67-0.92c0.31-0.18,0.68-0.23,1.08-0.15c0.19,0.04,0.55,0.3,0.5,0.61c0,0-0.01,0.01-0.01,0.01
	c-0.06,0.07-0.11,0.16-0.13,0.27c-0.05,0.22,0.11,0.33,0.47,0.34c0.36,0.01,0.72-0.14,1.07-0.46c0.35-0.31,0.55-0.72,0.58-1.22
	c0.03-0.5-0.12-0.97-0.46-1.39c-0.34-0.42-0.76-0.72-1.27-0.91c-0.5-0.18-1.06-0.25-1.66-0.22c-0.6,0.04-1.18,0.24-1.72,0.59
	c-0.55,0.35-1.44,1.04-1.81,2.43c-0.21,0.86-0.26,1.7-0.01,2.54c0.24,0.82,0.58,1.44,1.01,1.9c0.47,0.5,1.92,2.07,5.01,2.13
	c0.98,0.02,1.9-0.18,2.75-0.68c0.85-0.5,1.49-1.03,1.92-1.6c0.43-0.57,0.79-1.23,1.08-1.97c0.3-0.75,0.47-1.62,0.53-2.64
	c0.06-1.01-0.07-1.73-0.25-3.26c-0.85-7.36,1.99-10.07,1.99-10.07c0.86-0.94,1.62-1.59,2.3-1.97c0.53-0.29,1.09-0.47,1.67-0.55l0,0
	c0.05-0.01,0.1-0.02,0.15-0.03c0.02,0,0.04-0.01,0.05-0.01l0,0c0.15-0.02,0.31-0.05,0.47-0.06c0.77-0.04,1.46,0.03,2.07,0.23
	c0.61,0.2,1.15,0.52,1.64,0.96c0.48,0.44,0.85,1.06,1.11,1.88c0.27,0.81,0.32,1.57,0.16,2.28c-0.16,0.71-0.55,1.33-1.17,1.87
	c-0.63,0.54-1.28,0.87-1.95,0.98c-0.67,0.11-1.28,0.05-1.81-0.17c-0.54-0.22-0.9-0.57-1.09-1.02c-0.18-0.45-0.27-0.78-0.18-1.13
	c0.09-0.35,0.32-0.65,0.66-0.87c0.16-0.1,0.6-0.18,0.78,0.08c0,0.01,0,0.01,0,0.02c0.01,0.1,0.04,0.19,0.1,0.29
	c0.12,0.19,0.31,0.16,0.58-0.09c0.26-0.25,0.41-0.61,0.44-1.08c0.04-0.47-0.12-0.9-0.45-1.29c-0.33-0.38-0.77-0.6-1.31-0.67
	c-0.54-0.06-1.06,0.02-1.55,0.25c-0.49,0.23-0.94,0.57-1.34,1.03c-0.4,0.45-0.67,1-0.81,1.64c-0.14,0.64-0.29,1.76,0.43,3.02
	c0.46,0.76,1.02,1.4,1.8,1.82c0.75,0.41,1.44,0.62,2.08,0.64c0.7,0.02,2.84,0.11,5.09-2.04c0.72-0.68,1.22-1.48,1.48-2.44
	C45,25.94,45.08,25.1,44.98,24.39z M30.27,10.04c-0.03-0.53-0.2-1.05-0.48-1.54c0.12,0.14,0.24,0.29,0.33,0.44
	c0.39,0.6,0.67,1.32,0.62,2.14c-0.06,0.83-0.3,1.51-0.7,2.06c-0.39,0.55-0.81,0.93-1.35,1.15c-0.54,0.23-1.17,0.24-1.62,0.06
	c-0.45-0.19-0.76-0.44-0.94-0.75c-0.18-0.31-0.18-0.65,0.01-1c0.03-0.06,0.06-0.11,0.09-0.16c0.07,0.13,0.17,0.27,0.28,0.4
	c0.31,0.36,0.72,0.55,1.22,0.58c0.5,0.03,0.97-0.12,1.39-0.46c0.42-0.34,0.72-0.76,0.91-1.27C30.23,11.2,30.3,10.64,30.27,10.04z
	 M12.9,19.25c0.71,0.15,1.42,0.46,1.96,1.08c0.54,0.63,0.85,1.29,0.97,1.97c0.11,0.67,0.08,1.24-0.15,1.78
	c-0.23,0.54-0.66,1-1.12,1.19c-0.45,0.18-0.86,0.23-1.2,0.14c-0.35-0.1-0.59-0.34-0.7-0.72c-0.02-0.06-0.03-0.12-0.04-0.18
	c0.15,0.04,0.31,0.07,0.49,0.08c0.47,0.04,0.9-0.12,1.29-0.45c0.38-0.33,0.6-0.77,0.67-1.31c0.06-0.54-0.02-1.06-0.25-1.55
	c-0.23-0.49-0.57-0.94-1.03-1.35c-0.4-0.36-0.88-0.61-1.43-0.76C12.53,19.19,12.72,19.21,12.9,19.25z M21.01,39.27
	c0.03,0.53,0.19,1.05,0.48,1.54c-0.12-0.14-0.24-0.29-0.33-0.45c-0.39-0.6-0.68-1.32-0.62-2.14c0.06-0.82,0.3-1.51,0.7-2.06
	c0.39-0.55,0.81-0.93,1.35-1.15c0.54-0.23,1.17-0.24,1.62-0.06c0.45,0.19,0.76,0.44,0.94,0.75c0.18,0.31,0.18,0.64-0.01,1
	c-0.03,0.06-0.06,0.11-0.09,0.16c-0.07-0.13-0.17-0.27-0.28-0.4c-0.31-0.36-0.72-0.55-1.22-0.58c-0.5-0.03-0.97,0.12-1.39,0.46
	c-0.42,0.34-0.72,0.76-0.91,1.27C21.04,38.11,20.97,38.66,21.01,39.27z M37.21,19.12c-0.71,0.08-1.61,0.31-2.36,0.6
	c-1.3,0.51-1.78,0.97-2.12,1.21c-3.13,2.29-3.57,7.5-3.57,7.5c-0.04,0.89-0.12,2-0.02,3.24c0.04,0.49,0.1,0.97,0.16,1.45
	c-0.31-0.41-0.64-0.74-0.98-1c-0.57-0.43-1.23-0.79-1.98-1.08c-0.74-0.29-1.62-0.47-2.64-0.53c-1.01-0.06-1.73,0.07-3.26,0.25
	c-3.56,0.41-6.03-0.04-7.63-0.62c0.45,0.06,0.87,0.08,1.25,0.04c0.71-0.07,1.61-0.3,2.36-0.6c1.3-0.51,1.78-0.96,2.12-1.21
	c3.14-2.29,3.57-7.5,3.57-7.5c0.04-0.89,0.12-2,0.02-3.23c-0.04-0.49-0.1-0.97-0.16-1.45c0.32,0.41,0.64,0.74,0.98,1
	c0.57,0.43,1.23,0.79,1.97,1.08c0.75,0.29,1.62,0.47,2.64,0.53c1.01,0.06,1.73-0.07,3.26-0.25c3.56-0.41,6.03,0.04,7.63,0.62
	C38,19.1,37.59,19.08,37.21,19.12z M38.04,30.07c-0.71-0.15-1.42-0.46-1.96-1.08c-0.54-0.63-0.85-1.29-0.97-1.97
	c-0.11-0.67-0.08-1.24,0.15-1.78c0.22-0.54,0.67-1,1.12-1.19c0.45-0.18,0.86-0.23,1.2-0.13c0.35,0.09,0.59,0.33,0.7,0.72
	c0.02,0.06,0.03,0.12,0.04,0.18c-0.15-0.04-0.31-0.07-0.49-0.08c-0.47-0.04-0.9,0.12-1.29,0.45c-0.38,0.33-0.6,0.77-0.66,1.31
	c-0.06,0.54,0.02,1.06,0.25,1.55c0.23,0.49,0.57,0.94,1.03,1.35c0.4,0.36,0.88,0.61,1.43,0.76C38.41,30.13,38.22,30.11,38.04,30.07z
	"/>
</svg>
