<?xml version="1.0" encoding="utf-8"?>
<!-- Generator: Adobe Illustrator 24.0.0, SVG Export Plug-In . SVG Version: 6.00 Build 0)  -->
<svg version="1.1" id="Layer_1" xmlns="http://www.w3.org/2000/svg" xmlns:xlink="http://www.w3.org/1999/xlink" x="0px" y="0px"
	 viewBox="0 0 36 36" width="36px" heigth="36px" hestyle="enable-background:new 0 0 36 36;" xml:space="preserve">
<style type="text/css">
	.st0{fill:#AECFCE;}
	.st1{fill:#386B6E;}
</style>
<path class="st0" d="M9.4,10c4.4,0,8,3.6,8,8s-3.6,8-8,8s-8-3.6-8-8C1.4,13.6,5,10,9.4,10z"/>
<path class="st0" d="M18.7,10.3c4.4,0,8,3.6,8,8s-3.6,8-8,8s-8-3.6-8-8C10.7,13.9,14.3,10.3,18.7,10.3z"/>
<path class="st0" d="M10.4,26.5c0-4.4,3.6-8,8-8s8,3.6,8,8s-3.6,8-8,8C14,34.5,10.4,30.9,10.4,26.5z"/>
<circle class="st0" cx="27.3" cy="17.7" r="8"/>
<circle class="st0" cx="18.6" cy="9.3" r="8"/>
<path class="st1" d="M32.4,17.6c-0.1-0.5-0.2-1-0.5-1.6c-0.2-0.5-0.6-1.1-1.1-1.6c-0.5-0.5-0.9-0.8-1.6-1.4l0,0
	c-1.4-0.9-3.5-1.2-3.5-1.2c-1-0.1-1.4-0.1-2.3,0c-1,0.1-1.9,0.2-2.8,0.3c-0.9,0.1-1.6,0-2.2-0.1c-0.5-0.1-1-0.4-1.4-0.8
	c-0.4-0.4-0.7-0.8-0.9-1.2c-0.2-0.4-0.3-0.8-0.3-1.3c0-0.5,0.1-1,0.4-1.5c0.3-0.5,0.6-1,1.1-1.2c0.4-0.3,1-0.4,1.5-0.4
	c0.6,0,1.1,0.2,1.5,0.5c0.4,0.3,0.7,0.6,0.8,1c0.2,0.4,0.2,0.7,0,1.1c-0.1,0.3-0.3,0.5-0.5,0.7S20.1,9,19.8,8.9
	c-0.1,0-0.4-0.2-0.4-0.4c0,0,0,0,0,0c0-0.1,0.1-0.1,0.1-0.2c0-0.2-0.1-0.2-0.3-0.2s-0.5,0.1-0.8,0.3C18.2,8.6,18,8.9,18,9.3
	c0,0.4,0.1,0.7,0.3,1c0.2,0.3,0.5,0.5,0.9,0.7c0.4,0.1,0.8,0.2,1.2,0.2c0.4,0,0.8-0.2,1.2-0.4c0.4-0.3,1-0.7,1.3-1.7
	c0.2-0.6,0.2-1.2,0-1.8c-0.2-0.6-0.4-1-0.7-1.4c-0.3-0.4-1.4-1.5-3.6-1.5c-0.7,0-1.4,0.1-2,0.5c-0.6,0.4-1.1,0.7-1.4,1.2
	c-0.3,0.4-0.6,0.9-0.8,1.4c-0.2,0.5-0.3,1.2-0.4,1.9c0,0.7,0.1,1.2,0.2,2.3c0.6,5.3-1.4,7.3-1.4,7.3c-0.6,0.7-1.2,1.2-1.7,1.4
	c-0.7,0.3-1.3,0.4-1.7,0.5c-0.5,0-1.2,0-1.7-0.2c-0.4-0.1-0.8-0.4-1.2-0.7C6.3,19.4,6,19,5.9,18.4c-0.2-0.6-0.2-1.1-0.1-1.6
	c0.1-0.5,0.4-1,0.8-1.3C7,15,7.5,14.8,8,14.7s0.9,0,1.3,0.1c0.4,0.2,0.6,0.4,0.8,0.7c0.1,0.3,0.2,0.6,0.1,0.8
	c-0.1,0.3-0.2,0.5-0.5,0.6c-0.1,0.1-0.4,0.1-0.6-0.1c0,0,0,0,0,0c0-0.1,0-0.1-0.1-0.2c-0.1-0.1-0.2-0.1-0.4,0.1
	c-0.2,0.2-0.3,0.4-0.3,0.8s0.1,0.6,0.3,0.9C8.9,18.8,9.2,19,9.6,19c0.4,0,0.8,0,1.1-0.2c0.4-0.2,0.7-0.4,1-0.7
	c0.3-0.3,0.5-0.7,0.6-1.2c0.1-0.5,0.2-1.3-0.3-2.2c-0.3-0.6-0.7-1-1.3-1.3c-0.5-0.3-1-0.4-1.5-0.5c-0.5,0-2-0.1-3.7,1.5
	c-0.5,0.5-0.9,1.1-1.1,1.8c-0.2,0.7-0.2,1.3-0.2,1.8s0.2,1,0.5,1.6s0.6,1.1,1.1,1.6c0.5,0.6,1,1,1.8,1.5c0,0,0,0,0,0
	c1.7,0.9,3.6,1.1,3.6,1.1c0.6,0,1.4,0.1,2.3,0c1-0.1,1.9-0.2,2.8-0.3c0.9-0.1,1.6,0,2.2,0.1c0.5,0.1,1,0.4,1.4,0.8s0.7,0.8,0.9,1.2
	c0.2,0.4,0.3,0.8,0.3,1.3c0,0.5-0.1,1-0.4,1.5c-0.3,0.5-0.6,1-1.1,1.2c-0.4,0.3-1,0.4-1.5,0.4c-0.6,0-1.1-0.2-1.5-0.5
	c-0.4-0.3-0.7-0.6-0.8-1c-0.2-0.4-0.2-0.7,0-1.1c0.1-0.3,0.3-0.5,0.5-0.7c0.2-0.1,0.5-0.2,0.8-0.1c0.1,0,0.4,0.2,0.4,0.4l0,0
	c0,0.1-0.1,0.1-0.1,0.2c0,0.2,0.1,0.2,0.3,0.2c0.3,0,0.5-0.1,0.8-0.3c0.3-0.2,0.4-0.5,0.4-0.9c0-0.4-0.1-0.7-0.3-1
	c-0.2-0.3-0.5-0.5-0.9-0.7c-0.4-0.1-0.8-0.2-1.2-0.2c-0.4,0-0.8,0.2-1.2,0.4c-0.4,0.3-1,0.7-1.3,1.7c-0.2,0.6-0.2,1.2,0,1.8
	c0.2,0.6,0.4,1,0.7,1.4c0.3,0.4,1.4,1.5,3.6,1.5c0.7,0,1.4-0.1,2-0.5c0.6-0.4,1.1-0.7,1.4-1.2c0.3-0.4,0.6-0.9,0.8-1.4
	c0.2-0.5,0.3-1.2,0.4-1.9c0-0.7-0.1-1.2-0.2-2.3c-0.6-5.3,1.4-7.3,1.4-7.3c0.6-0.7,1.2-1.1,1.7-1.4c0.4-0.2,0.8-0.3,1.2-0.4l0,0
	c0,0,0.1,0,0.1,0c0,0,0,0,0,0l0,0c0.1,0,0.2,0,0.3,0c0.6,0,1.1,0,1.5,0.2c0.4,0.1,0.8,0.4,1.2,0.7c0.3,0.3,0.6,0.8,0.8,1.4
	c0.2,0.6,0.2,1.1,0.1,1.6s-0.4,1-0.8,1.3c-0.5,0.4-0.9,0.6-1.4,0.7c-0.5,0.1-0.9,0-1.3-0.1c-0.4-0.2-0.6-0.4-0.8-0.7
	c-0.1-0.3-0.2-0.6-0.1-0.8c0.1-0.3,0.2-0.5,0.5-0.6c0.1-0.1,0.4-0.1,0.6,0.1c0,0,0,0,0,0c0,0.1,0,0.1,0.1,0.2
	c0.1,0.1,0.2,0.1,0.4-0.1c0.2-0.2,0.3-0.4,0.3-0.8c0-0.3-0.1-0.6-0.3-0.9c-0.2-0.3-0.6-0.4-0.9-0.5c-0.4,0-0.8,0-1.1,0.2
	c-0.4,0.2-0.7,0.4-1,0.7c-0.3,0.3-0.5,0.7-0.6,1.2c-0.1,0.5-0.2,1.3,0.3,2.2c0.3,0.5,0.7,1,1.3,1.3c0.5,0.3,1,0.4,1.5,0.5
	c0.5,0,2,0.1,3.7-1.5c0.5-0.5,0.9-1.1,1.1-1.8C32.4,18.7,32.5,18.1,32.4,17.6z M21.8,7.2c0-0.4-0.1-0.8-0.3-1.1
	c0.1,0.1,0.2,0.2,0.2,0.3c0.3,0.4,0.5,1,0.4,1.5c0,0.6-0.2,1.1-0.5,1.5c-0.3,0.4-0.6,0.7-1,0.8c-0.4,0.2-0.8,0.2-1.2,0
	c-0.3-0.1-0.5-0.3-0.7-0.5c-0.1-0.2-0.1-0.5,0-0.7c0,0,0-0.1,0.1-0.1c0.1,0.1,0.1,0.2,0.2,0.3c0.2,0.3,0.5,0.4,0.9,0.4
	c0.4,0,0.7-0.1,1-0.3c0.3-0.2,0.5-0.5,0.7-0.9C21.8,8.1,21.8,7.7,21.8,7.2z M9.3,13.9c0.5,0.1,1,0.3,1.4,0.8
	c0.4,0.5,0.6,0.9,0.7,1.4c0.1,0.5,0.1,0.9-0.1,1.3c-0.2,0.4-0.5,0.7-0.8,0.9c-0.3,0.1-0.6,0.2-0.9,0.1c-0.3-0.1-0.4-0.2-0.5-0.5
	c0,0,0-0.1,0-0.1c0.1,0,0.2,0.1,0.4,0.1c0.3,0,0.6-0.1,0.9-0.3c0.3-0.2,0.4-0.6,0.5-0.9c0-0.4,0-0.8-0.2-1.1c-0.2-0.4-0.4-0.7-0.7-1
	c-0.3-0.3-0.6-0.4-1-0.5C9,13.8,9.2,13.8,9.3,13.9z M15.1,28.3c0,0.4,0.1,0.8,0.3,1.1c-0.1-0.1-0.2-0.2-0.2-0.3
	c-0.3-0.4-0.5-1-0.4-1.5c0-0.6,0.2-1.1,0.5-1.5c0.3-0.4,0.6-0.7,1-0.8c0.4-0.2,0.8-0.2,1.2,0c0.3,0.1,0.5,0.3,0.7,0.5
	c0.1,0.2,0.1,0.5,0,0.7c0,0,0,0.1-0.1,0.1c-0.1-0.1-0.1-0.2-0.2-0.3c-0.2-0.3-0.5-0.4-0.9-0.4s-0.7,0.1-1,0.3
	c-0.3,0.2-0.5,0.5-0.7,0.9C15.1,27.4,15.1,27.8,15.1,28.3z M26.8,13.8c-0.5,0.1-1.2,0.2-1.7,0.4c-0.9,0.4-1.3,0.7-1.5,0.9
	c-2.3,1.6-2.6,5.4-2.6,5.4c0,0.6-0.1,1.4,0,2.3c0,0.4,0.1,0.7,0.1,1c-0.2-0.3-0.5-0.5-0.7-0.7c-0.4-0.3-0.9-0.6-1.4-0.8
	c-0.5-0.2-1.2-0.3-1.9-0.4c-0.7,0-1.2,0.1-2.3,0.2c-2.6,0.3-4.3,0-5.5-0.4c0.3,0,0.6,0.1,0.9,0c0.5-0.1,1.2-0.2,1.7-0.4
	c0.9-0.4,1.3-0.7,1.5-0.9c2.3-1.6,2.6-5.4,2.6-5.4c0-0.6,0.1-1.4,0-2.3c0-0.4-0.1-0.7-0.1-1c0.2,0.3,0.5,0.5,0.7,0.7
	c0.4,0.3,0.9,0.6,1.4,0.8c0.5,0.2,1.2,0.3,1.9,0.4c0.7,0,1.2-0.1,2.3-0.2c2.6-0.3,4.3,0,5.5,0.4C27.4,13.8,27.1,13.7,26.8,13.8z
	 M27.4,21.7c-0.5-0.1-1-0.3-1.4-0.8c-0.4-0.5-0.6-0.9-0.7-1.4c-0.1-0.5-0.1-0.9,0.1-1.3c0.2-0.4,0.5-0.7,0.8-0.9
	c0.3-0.1,0.6-0.2,0.9-0.1c0.3,0.1,0.4,0.2,0.5,0.5c0,0,0,0.1,0,0.1c-0.1,0-0.2-0.1-0.4-0.1c-0.3,0-0.6,0.1-0.9,0.3
	c-0.3,0.2-0.4,0.6-0.5,0.9c0,0.4,0,0.8,0.2,1.1c0.2,0.4,0.4,0.7,0.7,1c0.3,0.3,0.6,0.4,1,0.5C27.7,21.7,27.5,21.7,27.4,21.7z"/>
</svg>
